<svg width="300" height="300" viewBox="0 0 300 300" fill="none" xmlns="http://www.w3.org/2000/svg">
<g clip-path="url(#clip0_206_1289)">
<path opacity="0.1" d="M85.3561 263.392H256.976C256.976 263.392 177.827 330.007 85.3561 263.392Z" fill="#231F20"/>
<path d="M205.721 228.681L200.623 193.978L138.452 187.769L132.703 228.681C122.742 235.141 113.598 248.445 114.97 260.775C115.838 268.888 120.502 276.566 130.81 277.209H207.606C217.914 276.566 222.56 268.888 223.446 260.775C224.792 248.445 215.682 235.141 205.721 228.681Z" fill="#6D7695"/>
<path opacity="0.2" d="M186.763 257.671L193.042 256.801C168.014 260.28 140.068 259.81 116.099 250.376C115.029 253.731 114.657 257.27 115.004 260.775C115.873 268.888 120.536 276.566 130.845 277.209H207.64C217.949 276.566 222.595 268.888 223.481 260.775C223.847 256.779 223.307 252.751 221.9 248.993C210.532 254.002 199.243 256.236 186.763 257.671Z" fill="#231F20"/>
<path d="M137.948 191.03L168.161 276.722L171.583 276.827L200.623 193.978L137.948 191.03Z" fill="#8993BA"/>
<path opacity="0.05" d="M165.539 245.132C162.454 244.783 159.4 244.201 156.403 243.393L168.161 276.748L171.583 276.861L183.289 243.454C177.543 245.189 171.508 245.76 165.539 245.132Z" fill="#231F20"/>
<path d="M137.948 191.03C134.686 195.485 131.08 199.678 127.163 203.569L131.757 204.438C130.019 206.257 128.171 207.967 126.225 209.56L129.394 210.499C126.103 221.116 127.414 232.237 130.48 242.732C136.359 259.836 150.862 271.601 168.187 276.722L137.948 191.03Z" fill="#7F89AD"/>
<path d="M201.144 191.734L171.618 276.835C171.618 276.835 203.298 265.732 211.739 231.907C220.181 198.082 201.144 191.734 201.144 191.734Z" fill="#7F89AD"/>
<path opacity="0.05" d="M130.697 243.419C136.733 260.149 151.07 271.67 168.161 276.722L160.345 254.523C149.72 253.242 139.554 249.434 130.697 243.419Z" fill="#231F20"/>
<path opacity="0.05" d="M183.385 253.984C182.03 254.219 180.675 254.41 179.321 254.567L171.583 276.835C171.583 276.835 193.493 269.14 205.721 247.089C198.614 250.368 191.102 252.687 183.385 253.984Z" fill="#231F20"/>
<path d="M139.425 184.848C140.277 194.406 143.206 203.663 148.006 211.969C152.807 220.275 159.363 227.43 167.215 232.933C167.215 232.933 188.387 221.333 202.378 191.465L139.425 184.848Z" fill="#95A2CC"/>
<path opacity="0.05" d="M190.263 211.438C194.991 205.224 199.038 198.519 202.334 191.439L139.425 184.848C140.045 192.189 141.923 199.369 144.974 206.073C159.955 202.369 176.107 204.743 190.263 211.438Z" fill="#231F20"/>
<path d="M122.516 107.694C122.435 101.369 120.492 95.2081 116.932 89.9821C115.161 87.2971 112.652 85.1831 109.707 83.8954C108.283 83.3389 101.109 81.5911 100.38 83.391C100.953 81.9824 101.518 80.5651 102.117 79.1564C98.3229 79.7453 94.5906 80.6796 90.9662 81.9476C91.2615 80.2868 91.5654 78.626 91.8346 76.9652C82.525 80.8346 70.6188 88.5647 67.0321 98.373C63.376 108.347 64.6179 120.329 71.0183 128.894C79.086 139.676 94.657 144.545 106.876 138.041C117.61 132.328 122.734 119.433 122.516 107.694Z" fill="#565D75"/>
<path d="M115.682 108.59C115.274 86.5561 87.423 79.2869 75.9683 98.2774C71.1746 106.234 71.4264 116.833 77.0886 124.302C83.1676 132.285 94.8047 135.893 103.958 131.067C112.034 126.815 115.873 117.277 115.682 108.59Z" fill="#8B95BD"/>
<path opacity="0.05" d="M85.3995 116.259C78.0051 114.537 71.1204 111.093 65.3039 106.208C64.2085 114.236 66.2561 122.377 71.0182 128.928C79.086 139.711 94.657 144.58 106.876 138.076C115.23 133.615 120.146 124.859 121.848 115.685C109.937 118.923 97.4059 119.12 85.3995 116.259Z" fill="#231F20"/>
<path d="M290.602 131.563C289.474 128.963 288.014 126.519 286.26 124.294L291.236 126.528C282.551 101.799 250.133 93.2602 235.144 117.685C228.491 128.528 228.847 142.963 236.689 153.145C245.07 164.014 261.257 168.935 273.954 162.362C284.514 156.901 290.341 145.371 287.232 133.728C288.783 134.418 290.389 134.974 292.035 135.389C291.64 134.084 291.162 132.806 290.602 131.563Z" fill="#565D75"/>
<path d="M283.09 132.963C282.656 110.668 253.198 103.312 241.092 122.529C238.567 126.508 237.325 131.169 237.537 135.88C237.748 140.59 239.402 145.121 242.273 148.858C248.665 156.927 261.006 160.579 270.689 155.701C279.225 151.397 283.255 141.745 283.09 132.963Z" fill="#8B95BD"/>
<path opacity="0.05" d="M272.391 146.345C263.523 147.003 254.618 145.773 246.259 142.736C241.553 140.997 236.707 139.032 232.608 136.137C231.852 135.606 231.131 135.076 230.445 134.554C230.421 141.265 232.603 147.798 236.655 153.145C245.035 164.014 261.223 168.935 273.919 162.362C281.457 158.466 286.303 151.301 288.613 143.432C283.327 144.991 277.888 145.968 272.391 146.345Z" fill="#231F20"/>
<path d="M196.22 81.1824C177.566 78.7912 158.009 78.739 140.641 85.904C123.428 92.9906 109.021 108.077 106.52 126.981C103.915 146.362 109.794 166.405 123.602 180.439C142.482 199.63 177.592 204.021 202.968 198.96C245.096 190.552 255.474 134.259 227.501 104.868C220.377 97.2957 211.132 92.0578 200.979 89.8429C202.664 88.424 204.516 87.2179 206.494 86.2518C201.282 86.0376 196.062 86.1364 190.862 86.5474L196.22 81.1824Z" fill="#6D7695"/>
<path opacity="0.2" d="M212.79 101.486C190.063 83.9127 145.052 80.4694 129.368 106.312C118.079 124.946 128.595 145.441 147.163 153.962C164.531 161.979 185.712 164.64 203.611 156.771C223.932 147.858 235.291 125.911 218.869 107.207C217.031 105.11 214.995 103.194 212.79 101.486Z" fill="#8B95BD"/>
<path opacity="0.2" d="M200.979 101.216C185.018 88.8778 153.415 86.4344 142.395 104.608C134.457 117.694 141.856 132.067 154.892 138.076C167.102 143.702 181.961 145.571 194.553 140.041C208.83 133.789 216.802 118.372 205.269 105.208C203.969 103.744 202.532 102.408 200.979 101.216Z" fill="#8B95BD"/>
<path opacity="0.05" d="M228.188 173.309C205.999 176.17 182.647 174.544 160.667 170.866C142.369 167.796 123.02 162.057 107.692 151.006C110.184 162.103 115.7 172.292 123.628 180.439C142.508 199.63 177.619 204.021 202.994 198.96C219.373 195.691 230.949 185.17 237.332 171.814C234.267 172.431 231.21 172.918 228.188 173.309Z" fill="#231F20"/>
<path opacity="0.2" d="M152.764 190.978C142.37 188.467 132.329 184.67 122.872 179.674C123.116 179.935 123.35 180.187 123.602 180.439C142.482 199.63 177.592 204.021 202.968 198.96C209.057 197.775 214.856 195.412 220.042 192.004C197.809 196.578 174.847 196.227 152.764 190.978Z" fill="#231F20"/>
<path d="M159.399 160.04C157.775 165.779 160.267 173.492 166.459 175.318C173.893 177.518 180.901 169.961 181.448 162.997L159.399 160.04Z" fill="#262D38"/>
<path d="M156.142 163.718L182.543 168.475C182.543 168.475 190.193 141.258 175.413 134.911C160.102 136.502 156.142 163.718 156.142 163.718Z" fill="#353F4F"/>
<path opacity="0.1" d="M165.374 158.162C162.765 156.634 160.679 154.351 159.39 151.614C157.931 155.537 156.849 159.59 156.16 163.718L182.56 168.475C183.781 163.772 184.446 158.942 184.54 154.084C179.79 159.527 172.538 162.344 165.374 158.162Z" fill="#231F20"/>
<path d="M130.228 146.232C135.864 146.893 135.282 135.145 129.724 138.711C127.493 140.145 126.789 145.832 130.228 146.232Z" fill="#231F20"/>
<path d="M212.573 160.501C218.209 161.162 217.627 149.414 212.078 152.988C209.846 154.414 209.143 160.101 212.573 160.501Z" fill="#231F20"/>
<path d="M121.5 247.871C121.5 247.871 115.169 269.479 132.191 277.209H142.794C142.794 277.209 144.661 258.114 121.5 247.871Z" fill="#4B5166"/>
<path d="M134.249 274.044C131.774 273.714 129.75 271.497 129.038 269.21C128.448 267.392 127.718 263.671 129.603 262.375C132.581 260.323 136.307 265.192 137.262 269.271C137.888 272.044 137.262 274.409 134.249 274.044ZM123.758 251.802C123.194 252.853 123.03 254.073 123.298 255.236C123.424 256.057 123.739 256.837 124.218 257.514C124.665 258.101 125.264 258.554 125.95 258.822C126.637 259.091 127.384 259.165 128.109 259.036L123.758 251.802ZM127.744 253.21C127.49 254.256 127.633 255.359 128.144 256.306C128.446 256.978 128.898 257.573 129.464 258.045C129.991 258.449 130.618 258.701 131.277 258.775C131.937 258.848 132.604 258.74 133.207 258.462L127.744 253.21ZM122.395 257.149C121.888 258.097 121.74 259.196 121.978 260.245C122.107 260.986 122.405 261.688 122.846 262.297C123.248 262.818 123.783 263.221 124.394 263.463C125.006 263.705 125.671 263.776 126.32 263.671L122.395 257.149Z" fill="#2F3340"/>
<path d="M214.813 247.871C214.813 247.871 221.144 269.479 204.123 277.209H193.493C193.493 277.209 191.652 258.114 214.813 247.871Z" fill="#4B5166"/>
<path d="M199.077 269.271C200.033 265.192 203.758 260.323 206.737 262.375C208.622 263.671 207.892 267.392 207.302 269.21C206.563 271.497 204.54 273.714 202.091 274.044C199.051 274.409 198.426 272.044 199.077 269.271ZM208.196 258.993C208.923 259.122 209.671 259.048 210.359 258.78C211.047 258.511 211.647 258.059 212.095 257.471C212.574 256.793 212.889 256.013 213.016 255.193C213.283 254.03 213.12 252.809 212.556 251.758L208.196 258.993ZM203.107 258.454C203.71 258.731 204.377 258.84 205.036 258.766C205.696 258.692 206.323 258.44 206.85 258.036C207.416 257.564 207.868 256.97 208.17 256.297C208.681 255.35 208.824 254.247 208.569 253.202L203.107 258.454ZM210.002 263.671C210.651 263.776 211.317 263.705 211.928 263.463C212.54 263.221 213.075 262.818 213.476 262.297C213.918 261.688 214.215 260.986 214.345 260.245C214.583 259.196 214.435 258.097 213.928 257.149L210.002 263.671Z" fill="#2F3340"/>
<path d="M170.819 148.945C173.372 147.545 177.844 138.928 172.677 137.771C172.166 137.687 171.64 137.753 171.166 137.963C167.857 139.206 163.203 145.015 166.459 148.536C167.046 149.063 167.787 149.386 168.572 149.46C169.356 149.533 170.144 149.353 170.819 148.945Z" fill="#465369"/>
</g>
<defs>
<clipPath id="clip0_206_1289">
<rect width="227" height="216" fill="white" transform="translate(65 77)"/>
</clipPath>
</defs>
</svg>
