<svg width="300" height="300" viewBox="0 0 300 300" fill="none" xmlns="http://www.w3.org/2000/svg">
<g clip-path="url(#clip0_206_1468)">
<path opacity="0.1" d="M290.873 263.372H10.4439C10.4439 263.372 139.773 316.528 290.873 263.372Z" fill="#231F20"/>
<path d="M117.869 271.701H85.7288L62.7253 216.343L106.838 228.982C106.838 228.982 110.747 257.133 110.68 267.563L117.869 271.701Z" fill="#282B30"/>
<path d="M71.0933 271.701L62.9043 269.379C62.9043 269.379 75.9299 240.49 73.4056 225.09L46.3274 103.14L30.3534 107.623C30.3534 107.623 6.43552 144.322 10.4108 181.859C14.3861 219.396 35.5146 271.701 35.5146 271.701H71.0933Z" fill="#40454E"/>
<path opacity="0.1" d="M32.1818 170.411C38.6339 168.401 44.5132 164.871 49.3285 160.114C52.5465 160.526 55.8036 160.526 59.0216 160.114L73.4385 225.07C75.9628 240.47 62.9372 269.359 62.9372 269.359L71.0931 271.7H35.5144C35.5144 271.7 14.4124 219.396 10.4437 181.859C10.1787 179.391 10.0396 176.93 10.0065 174.475C17.5372 174.047 24.9859 172.681 32.1818 170.411Z" fill="#231F20"/>
<path opacity="0.1" d="M51.9257 214.853C58.9222 211.134 64.0039 204.815 67.3696 197.744L73.4385 225.07C75.9628 240.47 62.9372 269.359 62.9372 269.359L71.0931 271.7H35.5144C35.5144 271.7 26.0533 248.252 18.6129 221.491C29.8696 223.141 41.4045 220.434 51.9257 214.853Z" fill="#231F20"/>
<path d="M219.073 213.463C222.168 232.34 227.889 250.688 236.067 267.969L242.123 271.7H215.256C215.256 271.7 187.244 260.312 174.139 219.396L219.073 213.463Z" fill="#282B30"/>
<path d="M249.702 114.541L264.04 128.151C264.45 128.537 269.241 121.932 269.506 121.466C271.95 117.182 272.745 111.668 269.194 107.69C262.569 100.259 253.87 108.727 249.702 114.541Z" fill="#40454E"/>
<g style="mix-blend-mode:overlay" opacity="0.1">
<path d="M258.779 123.156L253.147 117.834C254.114 116.352 255.263 114.997 256.566 113.803C257.891 112.469 259.57 111.546 261.403 111.142C263.245 110.836 265.338 111.508 266.292 113.138C266.899 114.405 267.085 115.834 266.822 117.215C266.488 120.158 265.626 123.015 264.278 125.65L258.779 123.156Z" fill="white"/>
</g>
<path d="M294 186.629C275.144 196.673 255.42 205.301 235.57 213.117C211.752 222.489 187.867 233.877 162.193 236.305C126.31 239.705 89.4922 245.286 60.3932 218.631C30.307 191.072 23.7545 137.165 46.3605 103.12C82.9794 101.271 119.592 99.1885 156.23 97.7982C178.85 96.9468 200.734 95.5698 222.849 101.018C264.934 111.388 294 141.655 294 186.629Z" fill="#EDE7DC"/>
<path opacity="0.1" d="M35.1568 169.22C47.1754 177.203 60.1877 182.99 73.4453 188.511C83.1889 192.647 93.262 195.951 103.558 198.389C115.928 201.236 128.662 202.866 141.244 204.296C152.005 205.524 162.825 206.175 173.655 206.245C185.256 206.339 196.851 205.672 208.366 204.25C222.803 202.434 237.16 200.385 251.087 196.041C264.093 191.99 277.198 186.662 288.739 179.325C290.329 178.314 291.906 177.256 293.463 176.178C293.828 179.639 294.009 183.116 294.007 186.595C275.151 196.64 255.427 205.267 235.577 213.083C211.758 222.456 187.873 233.844 162.2 236.272C126.316 239.671 89.4987 245.252 60.3997 218.598C46.6453 205.999 37.8136 187.892 34.4346 168.708L35.1568 169.22Z" fill="#231F20"/>
<path opacity="0.2" d="M55.3909 212.225C76.4863 218.771 99.0327 221.066 120.983 222.203C143.291 223.426 165.651 223.315 187.946 221.871C199.402 221.099 210.91 220.001 222.359 218.432C202.867 226.374 183.13 234.316 162.173 236.299C126.29 239.698 89.4722 245.279 60.3732 218.624C58.0147 216.463 55.8014 214.148 53.7478 211.693C54.3242 211.873 54.8542 212.059 55.3909 212.225Z" fill="#231F20"/>
<path d="M144.702 98.2639L178.644 97.0532C177.471 97.0998 174.768 116.457 174.556 117.787C167.58 161.025 173.138 205.327 186.88 246.942C189.391 254.558 191.517 263.352 196.003 270.097L203.569 271.7H163.412C157.522 271.634 146.955 258.849 143.211 254.964C135.826 247.274 129.51 238.617 124.435 229.228C102.16 188.119 105.599 128.73 144.702 98.2639Z" fill="#40454E"/>
<path opacity="0.1" d="M122.46 220.993C128.569 225.473 135.557 228.6 142.959 230.166C153.388 232.248 164.439 233.039 174.656 229.314C176.948 228.483 179.015 227.665 180.937 226.8C182.703 233.571 184.691 240.286 186.899 246.942C189.41 254.558 191.537 263.352 196.023 270.097L203.569 271.7H163.412C157.522 271.634 146.955 258.849 143.211 254.964C135.826 247.274 129.51 238.617 124.435 229.228C122.591 225.829 120.93 222.334 119.459 218.758C120.453 219.511 121.453 220.256 122.46 220.993Z" fill="#231F20"/>
<path opacity="0.1" d="M164.373 259.255C171.935 260.263 179.577 260.535 187.191 260.066C188.516 260.066 189.812 260.002 191.08 259.873C192.315 263.464 193.967 266.896 196.003 270.097L203.569 271.7H163.412C158.112 271.641 149.081 261.343 144.569 256.401C151.122 257.578 157.734 258.45 164.373 259.255Z" fill="#231F20"/>
<path d="M248.258 171.189C248.258 171.189 246.529 149.358 240.745 141.136L224.247 136.393C224.247 136.393 212.566 148.094 213.998 160.433C215.429 172.772 222.352 179.411 222.352 179.411C222.352 179.411 237.293 180.362 248.258 171.189Z" fill="#40454E"/>
<path opacity="0.1" d="M236.65 153.528C231.415 153.293 226.213 154.461 221.577 156.914C218.894 157.792 216.35 159.053 214.024 160.659C214.024 160.586 214.024 160.513 214.024 160.433C212.593 148.094 224.274 136.393 224.274 136.393L240.771 141.136C243.01 144.322 244.64 149.551 245.8 154.759L236.65 153.528Z" fill="#231F20"/>
<path d="M290.866 162.282C291.131 163.28 284.599 164.857 283.684 164.943C280.842 165.116 277.059 164.205 275.071 161.99C271.758 158.285 269.559 150.881 269.386 145.972C269.201 140.71 271.44 135.734 274.852 131.657C282.366 140.56 287.834 151.017 290.866 162.282Z" fill="#40454E"/>
<path opacity="0.1" d="M281.604 150.575C277.798 150.411 273.996 150.985 270.407 152.265C269.841 150.199 269.501 148.078 269.393 145.938C269.208 140.677 271.447 135.701 274.859 131.623C279.859 137.545 283.96 144.175 287.03 151.3L281.604 150.575Z" fill="#231F20"/>
<path opacity="0.2" d="M266.584 155.75C274.149 166.951 279.274 179.629 281.624 192.955C274.296 196.56 266.882 199.992 259.382 203.252C256.619 188.498 255.672 160.36 256.069 159.908C256.467 159.455 263.476 156.901 266.584 155.75Z" fill="#231F20"/>
<path d="M258.242 195.702C261.082 194.909 263.733 193.552 266.04 191.711C270.678 187.719 267.862 180.402 266.703 175.447L269.731 175.34C269.634 177.912 269.966 180.481 270.711 182.943C271.241 184.699 271.997 186.163 273.812 186.702C275.343 187.126 276.922 187.349 278.51 187.367C279.155 187.385 279.801 187.363 280.444 187.3C280.643 188.139 280.835 188.977 281.007 189.821C279.535 189.998 278.047 189.998 276.575 189.821C274.629 189.649 272.726 189.152 270.943 188.351C270.65 189.751 270.033 191.061 269.141 192.176C266.577 195.416 262.688 197.385 258.64 198.722C258.501 197.731 258.368 196.726 258.242 195.702Z" fill="#6D6E71"/>
<path d="M228.004 155.71C227.639 153.901 229.203 151.965 231.085 152.79C233.317 153.761 233.907 157.446 231.005 157.892C230.326 157.959 229.646 157.774 229.093 157.372C228.54 156.97 228.153 156.379 228.004 155.71Z" fill="white"/>
<path d="M273.627 152.81C273.011 150.967 274.621 148.653 276.648 149.398C278.927 150.236 279.424 154.054 276.721 154.639C276.073 154.75 275.407 154.628 274.841 154.293C274.274 153.958 273.844 153.433 273.627 152.81Z" fill="white"/>
<path d="M261.84 171.921C261.84 171.921 270.022 166.999 274.521 169.819L268.936 178.812L261.84 171.921Z" fill="#40454E"/>
<g style="mix-blend-mode:overlay" opacity="0.1">
<path d="M30.3864 107.603L46.3604 103.12C79.1365 101.463 111.906 99.6276 144.695 98.2706H145.524C149.092 98.1153 152.659 97.9712 156.224 97.8382C178.843 96.9867 200.727 95.6097 222.843 101.058C232.2 103.313 241.228 106.775 249.702 111.355C230.879 138.921 200.362 158.424 167.699 166.28C127.198 176.019 84.0062 169.367 45.3798 153.715C35.163 149.624 25.3165 144.656 15.9496 138.867C19.5217 127.913 24.3674 117.419 30.3864 107.603Z" fill="white"/>
</g>
<path d="M205.802 117.375L196.665 138.887C196.665 138.887 176.908 131.191 184.594 115.692C189.543 105.701 205.802 117.375 205.802 117.375Z" fill="#40454E"/>
<g style="mix-blend-mode:overlay" opacity="0.1">
<path d="M204.861 119.59L198.13 135.442C193.214 133.659 188.317 128.497 187.595 124.18C187.39 123.122 187.417 122.033 187.675 120.987C189.278 115.22 199.581 116.916 204.861 119.59Z" fill="white"/>
</g>
</g>
<defs>
<clipPath id="clip0_206_1468">
<rect width="284" height="190" fill="white" transform="matrix(-1 0 0 1 294 97)"/>
</clipPath>
</defs>
</svg>
