<svg width="300" height="300" viewBox="0 0 300 300" fill="none" xmlns="http://www.w3.org/2000/svg">
<path opacity="0.1" d="M41.6143 263.23H261.67C261.67 263.23 160.178 306.324 41.6143 263.23Z" fill="#231F20"/>
<path d="M217.347 175.327L187.09 163.407C187.09 163.407 165.084 162.49 162.333 162.49L119.239 185.413L122.907 203.75L131.892 205.658C156.465 187.145 189.868 187.952 213.689 204.97L219.19 202.834L217.347 175.327Z" fill="#516614"/>
<path d="M127.188 205.813L184.953 218.063L218.438 205.043C191.839 186.063 154.585 185.165 127.188 205.813Z" fill="#415210"/>
<path d="M41.6143 263.23C64.0416 265.974 86.521 268.315 109.052 270.253C117.699 270.996 126.363 271.683 135.046 271.757C169.586 272.078 202.218 269.767 238.381 268.355L248.522 249.595L232.32 238.29L113.435 256.014L90.5125 258.462L67.8926 258.764L41 261.818L41.6143 263.23Z" fill="#B4BC1C"/>
<path d="M179.653 254.464C178.316 252.631 177.123 250.697 176.087 248.679L191.674 246.24C191.032 248.697 191.005 251.31 190.115 253.694C189.226 256.078 187.08 258.278 184.54 258.086C182.505 257.903 180.882 256.16 179.653 254.464ZM118.432 255.271C118.854 256.188 119.349 257.105 119.807 257.948C121.036 260.094 122.732 262.267 125.162 262.735C127.913 263.266 130.663 261.277 131.984 258.774C132.825 256.971 133.308 255.021 133.405 253.034L118.432 255.271ZM166.404 271.408C165.67 269.004 164.383 266.806 162.645 264.99C160.967 263.349 158.583 262.239 156.282 262.68C154.743 263.096 153.357 263.95 152.293 265.137C150.442 267.032 149.019 269.302 148.121 271.794C154.246 271.711 160.334 271.601 166.404 271.408ZM237.84 242.141C236.61 242.688 235.535 243.532 234.713 244.598C233.624 246.064 233.072 247.86 233.149 249.684C233.226 251.508 233.927 253.251 235.135 254.62C237.409 256.976 241.067 257.545 244.304 256.857L244.68 256.756L248.522 249.595L237.84 242.141ZM97.3342 263.349C95.1886 263.523 93.5382 265.284 92.2821 267.016C91.9061 267.539 91.5486 268.08 91.2001 268.621C95.479 269.031 99.7579 269.422 104.037 269.795C103.927 269.474 103.835 269.153 103.716 268.878C103.224 267.449 102.437 266.14 101.405 265.036C100.887 264.48 100.255 264.041 99.553 263.75C98.8507 263.459 98.094 263.322 97.3342 263.349ZM216.687 263.184C216.008 262.275 215.109 261.553 214.074 261.087C213.04 260.62 211.904 260.423 210.773 260.516C207.839 260.956 205.959 263.835 204.712 266.531C204.199 267.649 203.722 268.786 203.282 269.941L219.658 269.171C219.021 267.016 218.016 264.987 216.687 263.175V263.184ZM77.7859 258.764L77.8593 258.618L67.8926 258.764L65.6829 259.012C65.7974 259.217 65.9229 259.416 66.0588 259.608C67.0675 261.136 68.6112 262.232 70.3866 262.68C73.3023 263.266 76.2547 261.323 77.7859 258.764Z" fill="#FFF200"/>
<path d="M109.767 235.842C110.99 242.566 112.212 249.29 113.435 256.014C119.285 255.959 127.711 255.757 137.879 255.097C143.161 254.758 154.604 253.997 169.366 252.044C182.881 250.21 185.091 249.293 195.039 248.678C201.145 248.284 204.144 248.385 210.929 247.762C217.29 247.179 223.617 246.261 229.881 245.011C235.254 239.558 237.394 235.179 236.299 231.872C232.522 220.459 190.344 221.783 109.767 235.842Z" fill="#587016"/>
<path d="M103.652 212.91L99.0671 216.578L100.442 234.457L131.617 240.417L175.17 242.251L206.344 239.959L241.645 232.624L246.688 215.661L235.227 211.076L212.304 220.245L156.832 223.455L103.652 212.91Z" fill="#B4BC1C"/>
<path d="M117.405 237.676C118.082 236.359 119.017 235.193 120.156 234.247C122.274 232.578 125.382 231.954 127.738 233.284C129.471 234.274 130.489 236.099 131.351 237.914C131.727 238.739 132.057 239.574 132.36 240.426H131.562L117.405 237.676ZM190.757 235.549C188.731 237.095 187.113 239.112 186.044 241.426L199.275 240.454C198.572 238.783 197.606 237.235 196.414 235.869C195.903 235.198 195.209 234.689 194.415 234.402C193.123 234.109 191.802 234.788 190.757 235.585V235.549ZM156.832 223.464L153.714 222.849L144.619 224.839C144.674 224.555 144.224 224.913 144.298 225.188C144.707 227.098 145.364 228.948 146.251 230.689C147.151 232.441 148.696 233.775 150.56 234.412C153.687 235.328 157.061 233.311 158.812 230.551C160.08 228.292 160.867 225.795 161.123 223.216L156.832 223.464ZM221.299 229.965C222.937 229.216 224.242 227.891 224.966 226.242C225.679 224.602 226.187 222.881 226.479 221.117C227.023 218.83 227.373 216.502 227.525 214.157L220.474 216.981L210.956 223.317C211.719 225.472 213.061 227.376 214.835 228.818C215.729 229.538 216.79 230.02 217.92 230.22C219.05 230.421 220.212 230.333 221.299 229.965Z" fill="#FFF200"/>
<path d="M103.349 196.113C103.753 202.837 104.159 209.561 104.569 216.284C108.95 218.359 113.44 220.196 118.019 221.786C127.737 225.075 137.774 227.328 147.965 228.507C155.053 229.359 162.636 229.424 177.921 229.424C191.582 229.424 198.542 229.424 205.125 228.204C212.401 226.716 219.553 224.672 226.516 222.088C230.312 220.704 233.439 219.402 235.685 218.421L232.934 201.614C212.092 209.538 189.854 213.137 167.576 212.191C145.298 211.245 123.445 205.775 103.349 196.113Z" fill="#587016"/>
<path d="M91.5761 48.0886C83.324 51.2336 75.888 55.818 70.8267 61.0444C57.0732 75.238 51.0583 98.8389 57.1924 117.892C60.5574 128.336 68.1952 136.808 75.7046 144.776C76.9699 146.114 78.3269 147.526 80.0965 147.976C81.4639 148.248 82.8735 148.226 84.2317 147.911C95.8672 146.004 107.438 142.758 117.543 136.679C128.59 130.024 137.417 120.243 142.907 108.573C148.397 96.9021 150.304 83.866 148.387 71.1119C147.965 67.8834 147.105 64.7276 145.829 61.732C136.715 41.2852 111.61 40.4783 91.5761 48.0886Z" fill="#7E8513"/>
<path opacity="0.1" d="M145.829 61.732C144.179 57.9788 141.754 54.6167 138.714 51.8662C122.081 59.5315 107.539 74.0368 98.5079 89.129C92.8801 98.5296 89.1077 108.922 87.3951 119.744C85.9556 128.73 85.057 138.33 86.1848 147.526C97.1876 145.573 107.979 142.364 117.506 136.633C119.101 135.671 120.642 134.635 122.146 133.534C125.951 115.811 134.872 98.6922 148.681 87.6894C149.282 82.1539 149.171 76.5642 148.35 71.0569C147.936 67.8489 147.087 64.712 145.829 61.732Z" fill="#231F20"/>
<path opacity="0.1" d="M112.353 94.5112C119.166 82.5273 133.176 69.7549 147.929 68.4621C147.477 66.1488 146.772 63.892 145.829 61.732C144.179 57.9788 141.754 54.6167 138.714 51.8662C122.081 59.5315 107.539 74.0368 98.5079 89.129C92.8801 98.5296 89.1077 108.922 87.3951 119.744C85.9556 128.73 85.057 138.33 86.1848 147.526C91.7813 146.564 97.298 145.185 102.689 143.4C100.56 126.488 103.949 109.341 112.353 94.5112Z" fill="#231F20"/>
<path d="M210.929 51.6094C211.965 50.1699 212.763 48.3911 213.533 47.1808C213.7 46.9152 213.881 46.6581 214.074 46.4106C213.608 46.3128 213.126 46.3179 212.662 46.4256C212.198 46.5333 211.763 46.741 211.387 47.0341C210.806 47.5565 210.322 48.1772 209.957 48.8679C209.764 49.1888 209.572 49.5006 209.361 49.7848C208.885 49.3779 208.319 49.089 207.711 48.9413C203.942 48.0794 202.796 53.3607 199.963 54.4427C197.817 55.2587 196.469 53.6908 194.7 52.9298C193.624 52.5206 192.468 52.3641 191.322 52.4722C190.176 52.5803 189.07 52.9501 188.089 53.5533C187.172 54.0851 187.979 55.4696 188.942 55.0111C194.544 52.343 194.865 57.1659 199.321 57.1567C202.228 57.1567 203.291 54.0392 205.134 52.2971C205.748 51.7103 206.619 51.1235 207.39 51.4719C208.432 52.0481 209.263 52.9408 209.764 54.0209C210.127 54.713 210.612 55.3342 211.195 55.8547C211.569 56.1505 212.003 56.3605 212.468 56.4699C212.932 56.5792 213.414 56.5851 213.881 56.4873C213.707 56.2489 213.524 55.9922 213.34 55.708C212.579 54.6352 211.846 53.0031 210.929 51.6094Z" fill="#BE1E2D"/>
<path d="M217.347 170.284C209.143 164.678 199.972 160.636 190.299 158.364C178.498 155.804 166.27 155.961 154.54 158.822C147.075 160.56 139.842 163.177 132.992 166.616C127.513 169.341 122.295 172.564 117.405 176.244C115.9 177.478 114.323 178.623 112.683 179.673C106.402 172.576 103.56 165.039 100.901 157.906C97.2777 148.867 95.4106 139.22 95.3996 129.482C95.4188 120.041 97.2878 110.696 100.901 101.975C104.504 93.4843 108.86 88.0287 112.362 83.6368C117.955 76.6225 121.192 72.634 127.033 70.3417C128.371 69.8099 131.892 69.0673 138.952 67.591C142.437 66.8575 146.232 66.069 150.872 65.2988C158.803 63.9876 158.739 64.4919 165.084 63.465C172.165 62.5075 179.097 60.659 185.714 57.9636C188.55 56.7656 191.306 55.3875 193.966 53.8376C187.104 49.2274 179.507 45.8169 171.502 43.7517C164.818 42.0371 156.593 39.9282 146.746 42.3763C142.372 43.4583 139.337 45.127 133.451 48.3362C125.635 52.6407 118.263 57.7084 111.445 63.465C102.735 70.8002 95.693 76.7234 88.9813 86.8459C82.3438 96.9937 77.8219 108.376 75.6863 120.313C74.5035 126.869 72.5872 138.11 75.6863 151.946C77.896 161.821 81.7837 169.11 84.8553 174.868C87.9269 180.626 90.9068 186.21 96.3165 192.289C105.825 202.98 116.424 207.794 125.657 212.003C133.932 215.98 142.731 218.759 151.789 220.255C161.233 221.749 168.22 221.327 178.379 220.713C186.044 220.245 195.204 219.65 206.803 216.587C213.313 214.872 219.768 213.121 227.433 208.793C232.965 205.665 238.053 201.811 242.562 197.332C236.276 186.551 227.662 177.309 217.347 170.284ZM187.548 199.166C167.495 203.09 151.56 198.625 143.995 196.415C138.127 194.701 132.552 193.059 127.299 190.556C128.49 189.438 129.811 188.264 131.617 186.788C138.038 181.214 145.525 177.003 153.623 174.41C158.968 172.713 168.357 169.825 180.213 172.117C188.127 173.621 195.536 177.089 201.76 182.203C204.916 184.869 207.692 187.954 210.012 191.372C202.925 195.007 195.363 197.63 187.548 199.166Z" fill="#B4BC1C"/>
<path d="M168.018 46.0439C168.385 47.5384 168.935 49.6565 170.915 49.3906C172.896 49.1247 174.179 46.0622 174.931 44.5769C176.387 41.7502 177.374 38.7064 177.856 35.5638C178.021 34.4726 176.371 33.9867 176.169 35.1053C175.518 38.617 174.509 43.3574 172.043 46.1081C169.797 48.5929 169.347 44.2743 169.045 42.6055C168.625 40.3546 168.319 38.0839 168.128 35.8021C168.036 34.6102 166.157 34.6102 166.294 35.8021C166.615 39.254 167.191 42.6773 168.018 46.0439Z" fill="#404142"/>
<path d="M154.081 46.0439C154.457 47.5384 154.998 49.6565 156.979 49.3906C158.959 49.1247 160.252 46.0622 161.004 44.5769C162.456 41.7498 163.441 38.7059 163.92 35.5638C164.085 34.4726 162.443 33.9867 162.232 35.1053C161.591 38.617 160.573 43.3574 158.116 46.1081C155.86 48.5929 155.42 44.2743 155.108 42.6055C154.702 40.3544 154.414 38.0835 154.246 35.8021C154.145 34.6102 152.266 34.6102 152.412 35.8021C152.715 39.2526 153.273 42.6759 154.081 46.0439Z" fill="#404142"/>
<path opacity="0.2" d="M244.561 256.931L232.017 261.515L141.244 266.1L71.5601 264.266L41.4216 262.799L41.6142 263.23C64.0537 265.974 86.5331 268.315 109.052 270.253C117.698 270.996 126.363 271.684 135.046 271.757C169.586 272.078 202.218 269.767 238.381 268.355L244.561 256.931Z" fill="#231F20"/>
<path d="M171.42 156.75L171.346 156.567C176.371 156.42 181.399 156.767 186.356 157.603C185.891 158.182 185.379 158.722 184.825 159.217C182.615 161.179 179.479 162.316 176.637 161.5C175.481 161.121 174.419 160.503 173.519 159.684C172.62 158.865 171.905 157.865 171.42 156.75ZM155.392 169.825C152.339 169.367 149.341 171.457 147.846 174.171C147.343 175.086 146.973 176.068 146.746 177.087C148.984 176.069 151.28 175.184 153.623 174.437C155.365 173.887 157.529 173.209 160.041 172.603C158.865 171.161 157.22 170.177 155.392 169.825ZM86.2306 101.434C85.7863 99.4811 84.9469 97.64 83.7642 96.024C80.694 102.236 78.3378 108.775 76.7407 115.517C79.1282 115.351 81.3823 114.355 83.1132 112.702C84.5287 111.231 85.5551 109.431 86.0995 107.463C86.6438 105.495 86.6889 103.423 86.2306 101.434ZM150.872 65.2988C156.593 64.3819 158.207 64.3819 160.958 64.0426C160.202 62.9999 159.368 62.016 158.464 61.0994C157.509 60.0365 156.315 59.2162 154.98 58.7063C152.229 57.7894 149.121 59.2747 147.507 61.6403C146.615 63.014 146.07 64.5844 145.921 66.2157C147.47 65.8856 149.112 65.5922 150.872 65.2988ZM242.25 196.81C240.19 193.351 237.889 190.042 235.364 186.907C233.298 187.349 231.48 188.566 230.285 190.309C229.251 191.966 228.789 193.917 228.967 195.862C229.146 197.807 229.956 199.641 231.275 201.082C232.404 202.231 233.79 203.095 235.318 203.604C237.8 201.729 240.159 199.695 242.378 197.516L242.25 196.81ZM195.653 201.852C196.918 202.756 198.457 203.194 200.009 203.09C202.622 202.797 204.593 200.34 205.162 197.791C205.446 196.415 205.492 195.001 205.299 193.61C201.052 195.468 196.661 196.976 192.169 198.121C193.018 199.624 194.212 200.903 195.653 201.852ZM143.995 196.415C139.576 195.122 135.321 193.875 131.241 192.262C131.136 193.261 131.108 194.266 131.159 195.269C131.241 197.708 131.36 200.312 132.772 202.302C135.083 205.575 140.181 205.832 143.592 203.732C145.832 202.247 147.619 200.172 148.754 197.736C146.929 197.268 145.325 196.8 143.995 196.415ZM200.916 172.768C198.945 171.017 195.69 171.632 193.728 173.392C192.947 174.115 192.285 174.957 191.766 175.886C195.356 177.55 198.716 179.674 201.76 182.203C202.383 182.735 202.97 183.258 203.529 183.79C203.827 180.89 203.47 177.96 202.484 175.217C202.163 174.288 201.625 173.449 200.916 172.768ZM96.3899 149.433C96.9701 149.552 97.5587 149.626 98.1503 149.653C96.4415 143.642 95.5169 137.435 95.3996 131.187C93.3761 131.794 91.615 133.062 90.3988 134.789C89.1825 136.516 88.5818 138.602 88.6928 140.711C88.8038 142.821 89.6202 144.832 91.011 146.422C92.4018 148.012 94.2864 149.089 96.3623 149.479L96.3899 149.433ZM178.379 220.713C180.635 220.576 183.018 220.429 185.558 220.209C185.099 218.938 184.46 217.74 183.66 216.651C181.826 214.212 178.544 212.562 175.637 213.525C174.192 214.073 172.924 215.005 171.97 216.22C170.703 217.705 169.687 219.387 168.962 221.199C171.906 221.098 174.959 220.924 178.379 220.713ZM99.9841 191.317C99.7824 187.815 98.3337 184.211 95.3996 182.203C94.3754 181.512 93.2038 181.068 91.9781 180.909C90.7524 180.75 89.5065 180.879 88.3395 181.286C90.6062 185.209 93.2601 188.895 96.2615 192.289C97.3801 193.545 98.517 194.719 99.6723 195.828C99.9319 194.34 100.036 192.828 99.9841 191.317ZM110.666 64.1251C112.716 64.5255 114.83 64.4555 116.848 63.9202C118.867 63.385 120.738 62.3985 122.32 61.0352C124.747 58.7778 126.261 55.7074 126.574 52.4072C121.283 55.7404 116.228 59.4351 111.445 63.465L110.666 64.1251ZM112.362 83.6367C113.178 82.619 113.93 81.6746 114.664 80.776C113.875 80.5865 113.076 80.4426 112.271 80.3451C109.559 79.9529 106.797 80.573 104.514 82.0872C103.398 82.9631 102.491 84.0751 101.857 85.3434C101.223 86.6117 100.878 88.0047 100.846 89.4224C100.813 92.1834 101.636 94.887 103.202 97.161C105.788 92.3531 108.857 87.8216 112.362 83.6367Z" fill="#FFF200"/>
<path opacity="0.2" d="M237.977 229.414L201.76 236.75L160.499 238.583L116.947 233.082L99.9106 227.535L100.442 234.457L131.617 240.417L175.17 242.251L206.344 239.959L241.645 232.624L243.286 227.122L237.977 229.414Z" fill="#231F20"/>
<path opacity="0.2" d="M200.036 208.252C167.34 214.304 133.194 213.295 102.927 198.698C110.565 205.117 118.515 208.784 125.657 212.003C133.932 215.98 142.731 218.759 151.789 220.255C161.233 221.749 168.22 221.327 178.379 220.713C186.044 220.245 195.204 219.65 206.803 216.587C213.313 214.872 219.768 213.121 227.433 208.793C232.965 205.665 238.053 201.811 242.562 197.332C242.058 196.47 241.489 195.498 240.857 194.536C228.231 201.302 213.881 205.685 200.036 208.252Z" fill="#231F20"/>
<path opacity="0.2" d="M213.588 187.962C208.857 179.544 202.448 171.659 193.755 167.441C185.503 163.425 175.876 163.077 166.771 164.351C149.92 166.757 134.226 174.319 121.843 185.999C123.379 187.853 125.244 189.407 127.344 190.584C128.536 189.465 129.857 188.292 131.663 186.815C138.084 181.241 145.571 177.03 153.669 174.437C159.014 172.741 168.403 169.853 180.259 172.145C188.173 173.649 195.582 177.117 201.806 182.231C204.962 184.897 207.738 187.982 210.058 191.4C211.517 190.585 212.735 189.398 213.588 187.962Z" fill="#231F20"/>
<path opacity="0.1" d="M127.033 70.3417C128.371 69.8099 131.892 69.0672 138.952 67.591C142.437 66.8575 146.232 66.069 150.872 65.2988C158.803 63.9876 158.739 64.4919 165.084 63.465C172.165 62.5075 179.097 60.659 185.714 57.9636C188.455 56.8043 191.122 55.4784 193.7 53.9934C192.228 53.5074 190.731 53.0973 189.217 52.7648C166.762 47.8777 142.455 55.3138 125.639 70.9561C126.088 70.7452 126.574 70.5343 127.033 70.3417Z" fill="#231F20"/>
</svg>
