<svg width="300" height="300" viewBox="0 0 300 300" fill="none" xmlns="http://www.w3.org/2000/svg">
<path opacity="0.1" d="M33.1177 262.516H265.252C265.252 262.516 158.195 323.37 33.1177 262.516Z" fill="#231F20"/>
<path d="M180.872 224.57L207.041 215.879L212.973 221.311L185.399 269.013H204.593L209.547 264.848L211.111 268.643L217.514 264.037L213.531 272.663H157.695L180.872 224.57Z" fill="#403334"/>
<path d="M204.593 68.1241L193.301 53.5225L152.741 57.3829L157.572 40L143.572 58.8315L133.91 44.831L132.461 61.2434L66.7971 87.3177L71.6208 90.2149C60.3147 114.247 50.8772 139.083 58.5836 165.975C61.795 177.064 66.7851 187.558 73.3591 197.047C89.786 220.884 107.154 241.548 112.398 270.925H160.926C160.926 270.925 205.346 223.484 204.383 158.783L204.593 68.1241Z" fill="url(#paint0_linear_206_1065)"/>
<path d="M203.774 68.1965C205.245 67.8069 206.779 67.712 208.286 67.9171C209.794 68.1222 211.247 68.6233 212.56 69.3916C213.831 70.1225 214.903 71.1548 215.682 72.3974C218.094 76.4027 215.87 82.0449 211.821 84.3771C207.772 86.7093 202.608 86.2748 198.284 84.4858L203.774 68.1965Z" fill="#6E5859"/>
<path d="M253.823 119.462C253.052 120.539 252.147 121.512 251.128 122.359C246.652 126.082 239.974 127.928 235.042 127.277C226.546 126.118 219.303 119.824 215.682 112.096C213.016 106.482 212.06 100.217 209.735 94.4374C207.41 88.6576 203.217 83.0299 197.176 81.6755L194.279 192.825C218.181 194.998 265.013 190.413 281.433 141.886C282.041 140.075 282.562 138.322 283.004 136.613C283.712 133.904 284.235 131.15 284.569 128.37C274.19 125.915 263.847 123.308 253.823 119.462Z" fill="url(#paint1_linear_206_1065)"/>
<path opacity="0.2" d="M232.029 164.491C223.526 150.592 217.195 133.889 218.926 117.412C217.644 115.758 216.544 113.971 215.645 112.081C212.98 106.468 212.024 100.203 209.699 94.423C207.374 88.6432 203.18 83.0155 197.14 81.6611L194.243 192.81C207.642 194.027 228.284 193.122 246.674 183.532C241.082 177.764 236.169 171.375 232.029 164.491Z" fill="#231F20"/>
<path d="M160.954 270.925C160.954 270.925 205.375 223.484 204.412 158.783L204.52 104.302L153.349 66.4944C154.704 79.7996 155.906 93.1193 156.855 106.453C157.724 118.766 157.731 130.159 162.99 141.661L158.579 140.43C158.253 185.821 155.204 227.916 139.472 270.925H160.954Z" fill="#BF8781"/>
<path opacity="0.1" d="M177.664 187.733C170.595 188.921 163.178 190.246 155.935 190.036C147.968 189.797 139.899 188.378 132.092 187.212C124.899 186.126 117.806 184.457 110.884 182.221C99.0163 178.443 87.502 173.632 76.4735 167.844C69.1608 163.952 62.2533 159.342 55.853 154.083C56.5518 158.092 57.4633 162.062 58.5836 165.975C61.795 177.064 66.785 187.558 73.3591 197.047C89.7859 220.884 107.154 241.548 112.398 270.925H160.925C160.925 270.925 196.633 232.813 203.369 178.324C195.402 182.772 186.558 186.234 177.664 187.733Z" fill="#231F20"/>
<path opacity="0.1" d="M176.28 240.505C166.466 243.547 156.044 244.763 145.86 245.828C140.224 246.433 134.538 246.418 128.905 245.785C119.938 244.749 110.718 243.865 102.106 241.019C107.004 250.42 110.473 260.5 112.398 270.925H160.925C160.925 270.925 172.449 258.612 183.632 237.97C181.213 238.868 178.762 239.713 176.28 240.505Z" fill="#231F20"/>
<path opacity="0.2" d="M203.926 82.494L154.248 66.1613C150.576 83.1804 153.796 100.961 163.203 115.611C172.61 130.262 187.437 140.59 204.441 144.334L204.549 87.2236L203.926 82.494Z" fill="#231F20"/>
<path d="M96.3988 264.587C96.2777 264.029 96.0478 263.501 95.7224 263.032C95.3969 262.563 94.9822 262.162 94.5019 261.853C94.0217 261.545 93.4853 261.334 92.9234 261.232C92.3616 261.131 91.7852 261.141 91.2274 261.263C83.9976 262.824 76.5323 262.954 69.2525 261.647C65.7869 261.091 62.4247 260.017 59.279 258.46C51.3119 254.339 45.7204 245.567 44.9888 236.101C44.3225 227.482 47.5601 218.414 53.6803 211.519C51.5074 209.628 49.2476 207.767 47.1182 205.818C39.4987 214.43 35.4789 225.86 36.3191 236.775C37.2824 249.16 44.7209 260.676 55.2737 266.181C59.1912 268.137 63.3812 269.493 67.7025 270.2C76.1008 271.704 84.7118 271.554 93.0526 269.759C93.6125 269.64 94.1434 269.412 94.6149 269.087C95.0864 268.763 95.4892 268.349 95.8001 267.868C96.111 267.388 96.324 266.85 96.4267 266.287C96.5295 265.724 96.52 265.147 96.3988 264.587Z" fill="#544344"/>
<path d="M141.58 266.217L143.926 258.366L145.744 264.768L148.236 261.726L158.419 223.484L149.728 215.879L112.463 236.159C82.4417 251.007 88.3301 272.779 88.3301 272.779L122.951 272.663C130.578 270.592 135.061 253.723 135.061 253.723L137.162 265.311L138.502 258.366L141.58 266.217Z" fill="#544344"/>
<path opacity="0.3" d="M137.56 238.969C135.751 234.005 135.16 228.68 135.836 223.44L112.463 236.159C82.4417 251.007 88.3301 272.779 88.3301 272.779L122.951 272.663C130.578 270.592 135.061 253.723 135.061 253.723L137.162 265.311L138.502 258.366L141.58 266.217L143.926 258.366L145.744 264.768L148.236 261.726L149.851 255.671C144.259 251.376 139.998 245.585 137.56 238.969Z" fill="#231F20"/>
<path d="M179.243 272.786L185.399 262.805L177.432 266.217L176.708 260.27L172.145 268.752L171.42 263.892L167.473 269.114H146.273L148.236 261.726L145.744 264.768L143.926 258.366L141.58 266.217L138.501 258.366L137.169 265.311L138.501 272.663L179.243 272.786Z" fill="#FFB181"/>
<path d="M154.733 67.0015C153.261 66.6101 151.726 66.5142 150.217 66.7193C148.708 66.9244 147.254 67.4265 145.94 68.1966C144.667 68.924 143.592 69.9538 142.811 71.1951C140.399 75.2004 142.623 80.8426 146.672 83.1821C150.72 85.5215 155.885 85.0797 160.209 83.2907L154.733 67.0015Z" fill="#6E5859"/>
<path d="M157.116 69.7537L156.964 69.674C153.103 67.8995 147.2 70.7967 147.258 75.9391C147.316 80.9295 152.777 82.1101 156.066 80.082C156.575 79.7751 157.034 79.3916 157.427 78.9449C158.825 77.3442 159.796 75.5842 159.274 73.2955C158.948 71.8904 158.333 70.4056 157.116 69.7537Z" fill="#BF8781"/>
<path d="M206.947 71.3834L204.593 68.1241L153.349 66.4944C153.349 66.4944 155.522 114.841 223.605 137.656L224.33 152.866L229.4 146.89L229.581 153.409C229.581 153.409 250.042 144.355 254.75 124.981L206.947 71.3834Z" fill="#FFB181"/>
<g style="mix-blend-mode:overlay" opacity="0.2">
<path d="M202.5 79.5316C203.572 71.0502 192.917 69.9783 186.855 69.8262C180.996 69.6813 166.662 68.8556 162.997 74.6065C158.267 82.0232 170.769 86.1951 175.839 86.9194C182.053 87.7378 192.28 87.9913 198.031 85.1811C200.269 84.0584 202.188 82.0087 202.5 79.5316Z" fill="white"/>
</g>
<path opacity="0.1" d="M200.037 127.516C207.58 131.581 215.467 134.974 223.605 137.656L224.33 152.866L229.4 146.89L229.581 153.409C229.581 153.409 244.378 146.89 251.701 132.984C234.287 134.917 216.661 133.051 200.037 127.516Z" fill="#231F20"/>
<path d="M206.947 71.3834L221.795 126.791L254.75 124.981L206.947 71.3834Z" fill="#F15A29"/>
<path opacity="0.2" d="M229.711 111.9C233.383 112.154 236.882 110.488 239.945 108.38L219.774 85.7677C216.877 89.6209 216.232 95.2921 217.536 100.116C219.107 105.939 223.692 111.487 229.711 111.9Z" fill="#231F20"/>
<path d="M206.947 71.3834C206.947 71.3834 193.062 84.4206 200.305 101.804C204.643 112.197 212.167 120.947 221.795 126.791L206.947 71.3834Z" fill="#40C7DE"/>
<path d="M246.174 111.219C231.457 110.611 221.795 126.791 221.795 126.791L254.75 124.981C254.75 124.981 251.969 111.466 246.174 111.219Z" fill="#D44F24"/>
<path d="M250.129 122.909C250.129 122.909 248.919 117.021 246.413 114.768C245.32 117.586 244.24 120.403 243.415 123.279L250.129 122.909Z" fill="#A33D1C"/>
<path d="M236.954 115.876C233.573 117.943 230.709 120.755 228.581 124.097L234.491 123.771C235.165 121.096 235.987 118.46 236.954 115.876Z" fill="#A33D1C"/>
<path d="M195.807 74.592C197.799 76.4896 194.445 80.6326 192.396 78.6408C192.03 78.22 191.773 77.7163 191.647 77.1735C191.521 76.6306 191.529 76.0652 191.671 75.5263C192.251 73.3969 194.59 73.4331 195.807 74.592Z" fill="#414042"/>
<path d="M172.811 74.592C174.803 76.4896 171.449 80.6326 169.4 78.6408C169.034 78.22 168.777 77.7163 168.651 77.1735C168.525 76.6306 168.533 76.0652 168.675 75.5263C169.255 73.3969 171.594 73.4331 172.811 74.592Z" fill="#414042"/>
<path d="M144.18 124.046C141.536 118.252 129.825 107.634 129.825 107.634C129.825 107.634 127.022 101.84 125.899 99.493C125.023 101.021 124.327 102.687 123.56 104.281C118.721 100.718 113.403 97.8573 107.763 95.7847C109.366 98.3631 110.969 100.942 112.572 103.52C109.675 98.8846 96.8478 104.65 93.2046 106.142C85.7534 109.238 79.4327 114.547 75.0974 121.352C69.1583 130.674 69.4045 141.458 70.4258 152.12C71.6533 164.619 74.4368 176.916 78.7116 188.725L88.4895 216.733L87.2799 222.043C98.8685 234.355 101.534 251.557 102.041 261.154L105.51 264.442L109.494 259.372L113.115 264.804L116.375 258.286L120.358 264.804L122.973 262.233C133.113 223.621 144.491 184.821 146.983 144.862C147.403 137.706 147.208 130.695 144.18 124.046Z" fill="url(#paint2_linear_206_1065)"/>
<path d="M116.411 258.25L113.151 264.768L109.53 259.336L105.546 264.406L102.077 261.118C102.213 263.487 102.213 265.861 102.077 268.23H75.9231L72.2727 254.425L69.4769 262.914C69.4769 262.914 69.4769 269.498 69.4335 272.779H120.192C121.08 269.259 122.007 265.744 122.973 262.233L120.416 264.79L116.411 258.25Z" fill="#FFB181"/>
<path d="M79.4866 256.294L73.9386 268.027L79.407 269.317L79.4866 256.294Z" fill="#FFB181"/>
<path d="M233.463 75.7364C226.43 77.0836 217.529 81.3207 216.594 89.3385C216.5 90.1642 216.659 91.2217 217.456 91.4534C220.362 88.066 224.401 85.8519 228.82 85.2246C236.787 84.1237 244.617 88.636 250.549 93.6915L254.351 80.5964C248.702 75.606 240.677 74.3603 233.463 75.7364Z" fill="#FFB181"/>
<path d="M252.468 81.2192C251.234 81.4439 250.043 81.8645 248.941 82.465C246.413 83.7253 244.45 83.8194 241.698 83.5877C238.576 83.3269 235.81 82.3274 232.616 82.972C225.467 84.4206 221.802 90.4105 223.678 97.4578C224.844 101.804 228.118 105.983 232.789 106.62C236.534 107.134 240.757 105.548 241.481 101.427C241.763 99.6813 240.872 97.6968 239.207 97.0812C239.866 97.3129 241.379 96.9435 242.198 97.1319C243.395 97.491 244.551 97.9766 245.645 98.5804C248.233 99.8696 250.617 101.531 252.722 103.513C255.982 98.9571 258.925 94.1824 261.529 89.2226C261.687 88.9692 261.779 88.6804 261.797 88.3825C261.749 88.043 261.597 87.7267 261.363 87.4771C260.27 86.0468 259.077 84.6962 257.792 83.4356C255.829 81.6031 254.265 80.9875 252.468 81.2192Z" fill="#FFB181"/>
<path opacity="0.1" d="M252.772 103.382C255.987 98.8775 258.891 94.1587 261.464 89.2588C261.622 89.0053 261.714 88.7166 261.732 88.4186C261.684 88.0792 261.532 87.7629 261.297 87.5132C261.058 87.1946 260.798 86.9048 260.573 86.6006C257.655 87.9655 254.617 89.0566 251.498 89.8599C242.937 92.0835 232.666 92.6412 224.25 89.0705C223.058 91.7169 222.855 94.7032 223.678 97.4867C224.844 101.832 228.118 106.012 232.789 106.649C236.411 107.141 240.438 105.693 241.343 101.912C241.618 99.9927 240.619 97.8343 238.808 97.1752C239.014 97.2416 239.23 97.271 239.446 97.2622C239.351 97.2187 239.272 97.168 239.17 97.1318C239.829 97.3636 241.343 96.9942 242.162 97.1825C243.359 97.5416 244.515 98.0272 245.609 98.6311C246.283 98.957 246.935 99.3119 247.572 99.6958C249.418 100.758 251.159 101.993 252.772 103.382Z" fill="#231F20"/>
<path d="M284.561 128.37C289.059 90.5771 251.49 78.6263 251.49 78.6263L257.763 87.8031L248.108 87.3178L257.524 95.5312L244.487 97.9431C247.999 100.934 251.643 103.39 254.076 107.424C255.348 109.185 256.011 111.313 255.965 113.485C255.92 115.657 255.167 117.755 253.823 119.462C253.772 119.527 253.714 119.592 253.663 119.664C263.368 124.993 273.373 129.757 283.627 133.933C284.033 132.021 284.351 130.167 284.561 128.37Z" fill="#544344"/>
<path d="M213.415 120.49L205.723 72.6871C204.949 73.5769 204.224 74.5078 203.55 75.4756L209.547 116.55C210.769 117.928 212.059 119.243 213.415 120.49Z" fill="#409ADE"/>
<path d="M202.34 106.113C203.567 108.422 204.959 110.639 206.505 112.747L201.196 79.4737C200.419 81.0301 199.779 82.6514 199.284 84.3192L202.34 106.113Z" fill="#409ADE"/>
<g style="mix-blend-mode:overlay" opacity="0.05">
<path d="M144.18 124.046C141.536 118.252 129.825 107.634 129.825 107.634C129.825 107.634 127.022 101.84 125.899 99.493C125.022 101.021 124.327 102.687 123.559 104.281C118.721 100.718 113.403 97.8573 107.763 95.7847C109.366 98.3631 110.969 100.942 112.572 103.52C109.675 98.8846 96.8477 104.65 93.2045 106.142C85.7533 109.238 79.4326 114.547 75.0973 121.352C69.3827 130.326 69.3972 140.654 70.317 150.925C73.3485 156.29 77.5374 160.911 82.5792 164.454C97.5792 175.268 119.8 174.652 134.177 163.006C139.554 158.537 143.888 152.945 146.874 146.622C146.91 146.029 146.961 145.435 146.997 144.841C147.403 137.706 147.207 130.695 144.18 124.046Z" fill="white"/>
</g>
<g style="mix-blend-mode:overlay" opacity="0.05">
<path d="M260.587 82.8489C259.996 87.1023 259.81 91.402 260.03 95.6906C260.443 103.382 262.528 111.625 268.526 116.441C271.676 118.984 275.609 120.338 279.52 121.359C281.288 121.823 283.098 122.207 284.938 122.518C285.061 100.666 270.532 88.5636 260.587 82.8489Z" fill="white"/>
</g>
<defs>
<linearGradient id="paint0_linear_206_1065" x1="130.187" y1="235.797" x2="130.187" y2="77.8875" gradientUnits="userSpaceOnUse">
<stop stop-color="#403334"/>
<stop offset="1" stop-color="#544344"/>
</linearGradient>
<linearGradient id="paint1_linear_206_1065" x1="26413.5" y1="23451.1" x2="32633.4" y2="18417.8" gradientUnits="userSpaceOnUse">
<stop stop-color="#403334"/>
<stop offset="1" stop-color="#544344"/>
</linearGradient>
<linearGradient id="paint2_linear_206_1065" x1="108.516" y1="154.394" x2="108.516" y2="282.658" gradientUnits="userSpaceOnUse">
<stop stop-color="#6E5859"/>
<stop offset="1" stop-color="#403334"/>
</linearGradient>
</defs>
</svg>
