<svg width="300" height="300" viewBox="0 0 300 300" fill="none" xmlns="http://www.w3.org/2000/svg">
<path opacity="0.1" d="M28.0608 262.527H268.776C268.776 262.527 157.761 298.771 28.0608 262.527Z" fill="#231F20"/>
<path d="M154.614 171.33C155.786 185.481 149.401 209.657 149.401 209.657L126.498 248.484L129.513 262.758L140.094 269.861H123.128L103.448 246.086L113.759 220.638C112.617 223.352 89.9069 198.676 88.2104 196.825C69.7799 176.651 70.7284 146.63 97.2869 133.104C109.032 127.12 123.622 127.575 135.336 133.405C150.627 141.009 153.288 155.329 154.614 171.33Z" fill="#9E8172"/>
<path opacity="0.1" d="M101.05 210.32C107.906 212.965 114.862 215.402 121.933 217.415C125.727 218.502 129.583 219.497 133.439 220.268C135.444 220.684 137.464 221.039 139.485 221.378L139.77 221.432C140.603 221.509 141.436 221.61 142.268 221.694L149.371 209.657C149.371 209.657 155.756 185.481 154.584 171.33C153.257 155.329 150.597 141.009 135.305 133.405C123.591 127.575 109.001 127.12 97.2563 133.104C70.6979 146.63 69.7493 176.651 88.1799 196.825C89.0513 197.75 95.074 204.297 101.05 210.32Z" fill="#231F20"/>
<path d="M188.854 206.911L183.741 235.19L196.218 268.881H211.202L203.321 262.095L205.04 240.333L227.219 177.608L188.854 206.911Z" fill="#9E8172"/>
<path opacity="0.1" d="M186.131 228.534C187.157 228.141 188.16 227.617 189.154 227.146C191.553 226.028 193.912 224.833 196.241 223.561C197.305 222.975 198.37 222.373 199.418 221.764C203.71 209.384 209.25 197.473 215.952 186.214L188.854 206.911L184.867 228.989L185.09 228.912C185.245 228.851 185.676 228.689 186.131 228.534Z" fill="#231F20"/>
<path d="M184.45 132.75C162.812 122.524 135.389 111.234 111.461 107.109C91.3643 103.646 66.8185 111.42 55.0276 129.141C48.3957 139.112 46.4601 152.16 50.3159 163.495C55.606 179.019 68.9238 185.419 83.5294 189.807C121.246 201.159 159.311 212.332 196.704 224.632C196.704 224.632 248.81 154.28 269.115 126.264L240.328 103.646L184.45 132.75Z" fill="#CCA793"/>
<path opacity="0.05" d="M196.673 224.632C196.673 224.632 248.78 154.28 269.084 126.264L242.865 105.682C241.631 105.212 240.413 104.726 239.21 104.194L215.443 116.578C220.986 125.148 223.954 135.129 223.995 145.335C223.995 162.138 215.35 172.957 206.621 186.206C205.757 187.517 192.408 209.957 191.969 209.78L122.018 179.998C96.801 169.202 73.4351 155.182 49.0821 143.407C47.6906 150.098 48.0896 157.038 50.2389 163.526C55.529 179.05 68.8468 185.45 83.4524 189.838C121.247 201.158 159.311 212.332 196.673 224.632Z" fill="#231F20"/>
<path d="M193.588 206.464C191.884 208.477 174.88 246.564 174.88 246.564L180.147 264.3L185.769 270.269L171.225 269.86L151.422 230.115L159.496 183.846L193.588 206.464Z" fill="#CCA793"/>
<path opacity="0.05" d="M174.873 246.564C174.873 246.564 178.528 238.367 182.584 229.375C179.627 231.168 176.438 232.548 173.107 233.478L163.082 234.819C159.686 234.962 156.292 234.503 153.057 233.462L171.225 269.861L185.73 270.254L180.109 264.285L174.873 246.564Z" fill="#231F20"/>
<path d="M135.451 170.181C135.646 183.624 132.025 196.846 125.01 208.315C119.134 217.708 112.409 226.614 106.148 235.752C104.513 238.135 94.2101 249.996 95.6059 253.211L105.855 262.681L116.088 269.83H99.1224L71.9855 245.723L84.0849 220.029C83.3677 221.571 64.0812 204.675 62.2921 202.778C49.9537 189.668 41.7101 171.377 44.494 153.193C44.7682 151.374 45.1441 149.572 45.6198 147.795C52.0975 123.874 76.142 112.013 99.5079 118.638C123.884 125.539 135.174 147.402 135.451 170.181Z" fill="#CCA793"/>
<path d="M135.451 170.181C135.646 183.624 132.025 196.846 125.01 208.315C119.134 217.708 98.9296 247.258 95.6059 253.211L105.855 262.681L116.088 269.83H99.1224L71.9855 245.723L84.0849 220.029C83.3677 221.571 64.0812 204.675 62.2921 202.778C49.9537 189.668 41.7101 171.377 44.494 153.193C44.7682 151.374 45.1441 149.572 45.6198 147.795C52.0975 123.874 76.142 112.013 99.5079 118.638C123.884 125.539 135.174 147.402 135.451 170.181Z" fill="#CCA793"/>
<path opacity="0.05" d="M95.606 253.211C97.9966 248.924 109.14 232.39 117.391 219.982C113.405 221.517 109.27 222.634 105.053 223.314C97.6597 224.444 90.1281 224.306 82.7817 222.905L72.0242 245.754L99.161 269.86H116.126L105.855 262.681L95.606 253.211Z" fill="#231F20"/>
<path d="M297 76.4247L291.98 94.3694L296.599 94.4157L292.296 97.0684L295.172 101.634L287.399 101.387L281.762 90.3208L297 76.4247Z" fill="#F2C6AE"/>
<path d="M230.318 100.169C229.609 99.8755 224.35 98.3332 224.35 98.3332L226.486 95.2948L221.928 94.2846L224.303 91.2694L219.445 75.0752L235.57 90.2284L230.318 100.169Z" fill="#F2C6AE"/>
<path d="M284.839 91.732L292.388 116.37L256.908 153.509L220.286 113.795L231.575 91.7243L219.437 75.1136L236.418 84.4754L279.965 84.1207L297 76.4246L284.839 91.732Z" fill="#E0B8A1"/>
<g style="mix-blend-mode:overlay" opacity="0.1">
<path d="M281.623 103.909C280.775 98.9655 271.845 96.3667 267.689 95.6419C258.743 94.0995 249.397 94.2538 240.745 97.0145C235.616 98.6493 227.897 105.312 233.604 111.15C234.765 112.195 236.15 112.96 237.652 113.386C248.451 117.134 260.153 117.404 271.112 114.157C274.745 113.078 278.477 111.435 280.536 108.258C281.426 106.994 281.814 105.443 281.623 103.909Z" fill="white"/>
</g>
<path opacity="0.03" d="M285.687 112.684C280.497 115.175 275.061 117.643 269.354 118.653C263.532 119.686 257.301 120.766 251.325 120.195C247.106 119.787 242.665 119.424 238.539 118.329C234.413 117.234 230.511 115.183 226.617 113.502C224.93 112.763 223.344 111.812 221.897 110.672L220.286 113.81L256.908 153.525L292.381 116.386L290.437 109.993C288.915 110.993 287.328 111.892 285.687 112.684Z" fill="#231F20"/>
<path d="M265.599 127.305C263.811 127.505 262.098 128.132 260.604 129.133C259.111 130.135 257.88 131.481 257.016 133.058C256.261 131.717 255.238 130.545 254.011 129.616C252.784 128.688 251.378 128.022 249.883 127.66C241.654 125.632 230.997 133.536 234.321 142.497C236.025 147.124 240.991 149.846 245.888 150.301C248.113 150.544 250.36 150.125 252.348 149.096C254.336 148.067 255.976 146.475 257.062 144.517C258.041 146.235 259.45 147.668 261.151 148.675C262.852 149.683 264.786 150.23 266.763 150.262C271.66 150.424 276.935 148.311 279.202 143.962C283.597 135.503 274.02 126.326 265.599 127.305Z" fill="#FFEFD1"/>
<path opacity="0.05" d="M266.208 139.297C257.023 142.258 247.307 141.356 238.585 137.508C237.172 136.878 235.815 136.13 234.529 135.271C234.018 136.403 233.736 137.626 233.7 138.867C233.664 140.109 233.875 141.345 234.321 142.505C236.025 147.132 240.991 149.854 245.888 150.309C248.113 150.552 250.36 150.133 252.348 149.104C254.336 148.075 255.976 146.482 257.062 144.525C258.041 146.243 259.45 147.676 261.151 148.683C262.852 149.691 264.786 150.238 266.763 150.27C271.66 150.432 276.934 148.319 279.202 143.97C281.137 140.245 280.374 136.39 278.191 133.32C274.534 135.927 270.49 137.943 266.208 139.297Z" fill="#231F20"/>
<path d="M265.576 127.598L257.008 109.044L248.433 127.375L265.576 127.598Z" fill="#F2C6AE"/>
<path d="M265.583 127.598L257.047 136.451L248.433 127.375C248.433 127.375 255.959 121.884 265.583 127.598Z" fill="#524648"/>
<path d="M271.86 108.813C270.449 109.708 269.74 111.666 271.32 113.602C271.574 113.924 271.888 114.194 272.245 114.395C272.603 114.596 272.996 114.725 273.403 114.774C273.81 114.823 274.223 114.791 274.618 114.681C275.013 114.571 275.382 114.383 275.704 114.13C276.027 113.877 276.297 113.563 276.498 113.205C276.699 112.848 276.828 112.455 276.877 112.048C276.926 111.64 276.894 111.228 276.784 110.833C276.673 110.438 276.486 110.069 276.233 109.746C275.775 109.044 275.058 108.552 274.239 108.377C273.42 108.202 272.564 108.359 271.86 108.813Z" fill="#524648"/>
<path d="M240.212 107.579C238.554 107.78 237.066 109.237 237.66 111.666C237.749 112.066 237.916 112.445 238.151 112.78C238.387 113.116 238.686 113.401 239.032 113.621C239.378 113.841 239.763 113.991 240.167 114.061C240.571 114.132 240.984 114.123 241.384 114.034C241.784 113.945 242.163 113.777 242.498 113.542C242.834 113.307 243.12 113.007 243.34 112.662C243.559 112.316 243.709 111.93 243.78 111.526C243.85 111.123 243.841 110.709 243.752 110.309C243.642 109.479 243.209 108.725 242.545 108.214C241.882 107.702 241.043 107.474 240.212 107.579Z" fill="#524648"/>
<path d="M105.492 106.268L91.8967 105.034L88.3802 104.834L84.9255 104.772H82.9513C81.6866 104.772 79.8667 104.88 77.7461 105.011C72.5039 105.418 67.3026 106.243 62.1919 107.479C57.0677 108.703 52.0535 110.348 47.2007 112.399C45.2266 113.27 43.5763 114.003 42.4504 114.589L40.6768 115.476L38.425 116.71C37.7078 117.088 36.8827 117.604 35.8879 118.198C35.4021 118.499 34.8777 118.799 34.3456 119.147L32.6645 120.265C31.4846 121.036 30.2662 121.953 28.9553 122.902C28.3075 123.388 27.6674 123.928 27.0043 124.444C26.6727 124.707 26.3333 124.976 26.0018 125.254L24.9838 126.187C22.1568 128.633 19.541 131.314 17.1644 134.199C12.6065 139.659 9.02704 145.866 6.58414 152.545C6.34509 153.231 6.10603 153.887 5.88239 154.519C5.65876 155.152 5.51996 155.761 5.3503 156.324C5.01871 157.465 4.73338 158.452 4.57915 159.285C4.209 160.943 4.00079 161.891 4.00079 161.891C4.00079 161.891 3.8774 162.663 3.70004 163.819C3.6075 164.398 3.50725 165.076 3.39929 165.801C3.29133 166.526 3.26048 167.343 3.19107 168.115C3.12167 168.886 3.04456 169.657 3.01371 170.428C2.98286 171.199 3.01371 171.839 3.01371 172.418C3.01371 173.59 3.01371 174.361 3.01371 174.361L3.12938 176.674C3.12938 178.147 3.41471 180.229 3.73088 182.728C4.64883 188.775 6.41411 194.663 8.97471 200.218C11.5488 205.819 14.926 211.014 18.9997 215.641C20.3651 217.165 21.8064 218.619 23.3181 219.998L25.0455 221.54L27.4515 223.445C27.8371 223.746 28.2227 224.093 28.7316 224.432L30.2739 225.511L32.0553 226.722C32.6953 227.131 33.3817 227.493 34.0911 227.948C37.3031 229.858 40.6542 231.523 44.1161 232.93C48.0256 234.466 52.0282 235.754 56.0998 236.786C60.2178 237.788 64.3511 238.583 68.2146 239.099C72.0781 239.616 75.6794 240.009 78.7486 240.225C81.8177 240.441 84.3702 240.549 86.1516 240.634L88.9432 240.711H89.7143C90.727 240.741 91.7357 240.571 92.6827 240.211C93.6298 239.851 94.4966 239.308 95.2338 238.613C95.971 237.918 96.5641 237.085 96.9793 236.161C97.3944 235.236 97.6235 234.24 97.6533 233.227C97.6832 232.214 97.5133 231.206 97.1534 230.258C96.7935 229.311 96.2505 228.445 95.5555 227.707C94.8606 226.97 94.0272 226.377 93.1031 225.962C92.1789 225.547 91.182 225.318 90.1693 225.288H90.0382H89.5755H89.3133L86.6991 225.211C85.0489 225.134 82.6814 225.049 79.8821 224.833C77.0829 224.617 73.8286 224.301 70.397 223.823C66.9654 223.345 63.3795 222.643 59.8553 221.787C56.5032 220.969 53.2042 219.946 49.9769 218.725C47.224 217.608 44.5586 216.285 42.0032 214.769C41.4479 214.438 40.9081 214.137 40.4146 213.821L39.0496 212.888L37.8158 212.063C37.4534 211.8 37.1372 211.53 36.8441 211.291L35.0088 209.849L33.7595 208.7C32.919 207.991 31.8471 206.834 30.5515 205.462C27.4637 201.96 24.9071 198.023 22.9634 193.779C20.9854 189.527 19.6172 185.018 18.8994 180.384C18.6758 178.487 18.4676 176.906 18.4522 175.795C18.4368 174.685 18.3596 174.053 18.3596 174.053C18.3596 174.053 18.3596 173.474 18.3596 172.595C18.3596 172.163 18.3596 171.647 18.3596 171.107C18.3596 170.567 18.537 169.973 18.537 169.372C18.537 168.77 18.6141 168.215 18.6835 167.675C18.7529 167.135 18.8455 166.634 18.9149 166.21L19.1308 164.776C19.1308 164.776 19.2927 164.066 19.5703 162.825C19.7281 162.077 19.9237 161.339 20.1564 160.611L20.5497 159.262C20.7117 158.799 20.889 158.313 21.0741 157.797C22.9108 152.772 25.6062 148.104 29.0401 144.001C30.8876 141.755 32.9231 139.67 35.1245 137.77L35.8956 137.076L36.6668 136.428C37.1989 136.012 37.7001 135.58 38.2091 135.194C39.2656 134.423 40.2295 133.652 41.2012 133.066L42.5584 132.164C42.9902 131.878 43.4221 131.639 43.8154 131.392C44.5865 130.914 45.3037 130.482 45.8975 130.174L47.7405 129.164L49.2134 128.393C50.1388 127.907 51.5269 127.305 53.154 126.573C57.2248 124.851 61.4319 123.471 65.7315 122.447C70.0388 121.404 74.4227 120.708 78.8411 120.365C80.6456 120.257 82.1493 120.164 83.1981 120.164H84.8561L87.7248 120.218L90.5318 120.373L104.027 121.599L104.798 121.668C105.029 119.108 105.153 117.812 105.153 117.812L105.5 113.957L105.847 110.101L106.194 106.245L105.492 106.268Z" fill="url(#paint0_linear_206_808)"/>
<path d="M209.258 119.825L184.45 132.75C168.711 125.308 149.918 117.327 131.626 111.929C115.972 107.302 99.6545 102.675 84.2777 110.633C77.8829 114.03 72.2797 118.742 67.8367 124.46C63.7573 129.596 61.4978 137.207 60.1792 143.615C59.5587 146.606 59.1184 149.632 58.8605 152.676C57.6189 167.475 65.1377 180.87 79.3346 186.607C96.9014 193.709 118.301 184.61 126.437 167.891C126.236 168.3 146.047 179.613 147.983 180.577C154.985 184.062 162.58 186.607 170.469 185.628C176.992 184.852 183.21 182.429 188.537 178.587C201.824 169.009 208.865 151.597 210.199 134.986C210.69 129.914 210.372 124.797 209.258 119.825Z" fill="#D4AD99"/>
<defs>
<linearGradient id="paint0_linear_206_808" x1="55.3904" y1="118.884" x2="50.7943" y2="236.161" gradientUnits="userSpaceOnUse">
<stop stop-color="#CCA793"/>
<stop offset="1" stop-color="#9E8172"/>
</linearGradient>
</defs>
</svg>
