<svg width="300" height="300" viewBox="0 0 300 300" fill="none" xmlns="http://www.w3.org/2000/svg">
<path opacity="0.1" d="M250.063 262.42H48.0001C48.0001 262.42 141.199 314.033 250.063 262.42Z" fill="#231F20"/>
<path d="M122.233 216.816C132.072 202.316 149.909 193.075 167.308 195.172C172.03 215.302 164.281 242.365 151.415 260.308L150.711 261.247L164.409 261.913L165.423 267.263H114.665C110.193 250.311 112.395 231.323 122.233 216.816Z" fill="#7D3924"/>
<path d="M208.242 191.41L181.346 264.69C182.057 264.465 182.811 264.406 183.548 264.516C185.743 264.796 187.771 266.522 187.522 267.309H178.728L186.674 194.786L208.242 191.41Z" fill="url(#paint0_linear_206_1772)"/>
<path opacity="0.1" d="M208.242 191.41L181.346 264.69C182.057 264.465 182.811 264.406 183.548 264.516C185.743 264.796 187.771 266.522 187.522 267.309H178.728L186.674 194.786L208.242 191.41Z" fill="#231F20"/>
<path d="M50.1721 187.278C50.6867 167.844 60.8503 150.196 73.7687 136.263C83.9097 143.422 98.16 144.785 110.238 141.334C112.509 140.471 114.946 139.714 117.087 138.7C118.14 145.711 117.697 152.866 115.786 159.693C113.417 167.98 109.065 175.533 105.599 183.426C93.1652 211.707 95.761 238.157 101.059 267.43C66.7306 257.879 49.2866 220.524 50.1721 187.278Z" fill="#F15A29"/>
<path d="M73.7991 136.263C75.1361 134.815 76.5033 133.407 77.9009 132.04C82.2387 127.87 85.5049 122.714 87.4213 117.01C89.1922 111.569 90.6074 104.145 89.1316 98.5599C96.2984 101.277 102.981 108.111 107.295 114.248C112.428 121.518 115.775 129.895 117.065 138.7C114.923 139.714 112.524 140.471 110.216 141.334C98.1601 144.785 83.9098 143.422 73.7991 136.263Z" fill="#EDE7DC"/>
<path opacity="0.1" d="M77.0532 201.12C87.7177 190.858 96.1056 178.469 101.673 164.756C107.24 151.043 109.862 136.313 109.368 121.521C109.308 120.007 109.229 118.481 109.133 116.942C113.27 123.565 115.989 130.973 117.118 138.7C118.171 145.711 117.727 152.866 115.816 159.693C113.447 167.98 109.096 175.533 105.63 183.426C93.1955 211.707 95.7913 238.157 101.089 267.43C77.1364 260.8 61.4103 240.602 54.3873 217.716C62.628 213.187 70.2467 207.608 77.0532 201.12Z" fill="#231F20"/>
<path opacity="0.1" d="M69.5457 232.663C79.3839 230.536 88.7908 225.269 96.9566 218.889C95.8819 234.721 98.0312 250.599 101.073 267.399C82.9862 262.39 69.5911 249.653 61.0924 233.859C63.9351 233.662 66.7601 233.263 69.5457 232.663Z" fill="#231F20"/>
<path d="M96.1091 213.228C101.543 192.001 114.976 179.271 120.833 173.875C125.548 169.524 134.524 161.245 148.577 156.22C164.175 150.642 174.187 153.291 186.924 144.111C191.112 141.286 194.604 137.547 197.138 133.177C199.672 128.806 201.181 123.918 201.552 118.88C202.022 113.325 200.69 113.03 200.546 105.764C200.504 103.557 200.583 101.349 200.781 99.1501L218.187 98.1966L251.992 97.6895L265.615 98.1512C265.585 106.283 266.267 114.401 267.65 122.414C268.723 128.404 270.241 134.305 272.191 140.07L224.763 158.233L191.972 201.12C171.924 209.218 153.92 217.088 138.921 233.344C134.123 238.536 129.7 244.062 125.684 249.88C124.572 251.492 117.284 264.69 115.725 267.399H101.043C98.6067 261.482 96.7736 255.333 95.5718 249.047C94.4896 243.417 91.9089 229.658 96.1091 213.228Z" fill="url(#paint1_linear_206_1772)"/>
<g style="mix-blend-mode:overlay" opacity="0.1">
<path d="M221.206 124.253C219.826 122.596 218.59 120.824 217.513 118.955C214.001 112.705 211.98 105.727 211.61 98.5674L218.202 98.2041L252.008 97.6971L265.63 98.1587C265.596 106.287 266.272 114.403 267.651 122.414C268.218 125.607 269.081 129.626 270.383 134.235L256.798 135.794C243.32 137.338 230.364 135.234 221.206 124.253Z" fill="white"/>
</g>
<g style="mix-blend-mode:overlay" opacity="0.2">
<path d="M227.427 125.532C225.285 118.494 236.743 117.033 240.724 116.973C246.929 116.874 259.356 116.67 264.351 121.165C268.838 125.191 266.553 130.534 261.195 131.957C252.356 134.303 235.464 134.636 228.653 127.416C228.104 126.891 227.685 126.246 227.427 125.532Z" fill="white"/>
</g>
<path d="M266.137 78.5201C265.849 82.7732 265.569 88.6535 265.63 95.6765V98.1512L252.008 97.6895L266.137 78.5201Z" fill="url(#paint2_linear_206_1772)"/>
<path d="M266.137 78.5201C265.849 82.7732 265.569 88.6535 265.63 95.6765V98.1512L252.008 97.6895L266.137 78.5201Z" fill="#3F2721"/>
<path d="M202.567 88.6081C203.557 84.3001 204.906 80.0826 206.6 76C212.523 82.1282 216.551 89.8354 218.202 98.1966L200.796 99.1502C201.137 95.5988 201.729 92.076 202.567 88.6081Z" fill="url(#paint3_linear_206_1772)"/>
<path d="M202.567 88.6081C203.557 84.3001 204.906 80.0826 206.6 76C212.523 82.1282 216.551 89.8354 218.202 98.1966L200.796 99.1502C201.137 95.5988 201.729 92.076 202.567 88.6081Z" fill="#3F2721"/>
<path d="M288.841 136.543L245.446 137.55C245.446 137.55 211.33 139.063 200.039 148.652C204.148 166.701 202.226 185.144 192.161 200.991L222.485 191.789L248.92 156.091C248.92 156.091 285.813 158.989 288.841 136.543Z" fill="#EDE7DC"/>
<path opacity="0.05" d="M96.1091 213.229C101.543 192.001 114.976 179.271 120.833 173.875C124.811 170.089 129.116 166.663 133.699 163.636C135.518 166.411 137.671 168.953 140.109 171.204C150.235 181.36 163.41 185.855 177.479 186.688C202.022 188.149 223.643 173.157 236.509 153.457C237.423 152.048 238.238 150.576 238.945 149.053C239.301 148.296 239.649 147.501 240.005 146.729C255.027 148.031 270.33 148.031 285.132 145.405C275.052 158.142 248.928 156.091 248.928 156.091L222.5 191.789L192.176 200.991L192.585 200.325L191.979 201.082C171.932 209.18 153.928 217.05 138.928 233.306C134.131 238.498 129.707 244.024 125.692 249.842C124.58 251.454 117.292 264.652 115.733 267.362H101.043C98.6068 261.444 96.7736 255.295 95.5718 249.01C94.4896 243.417 91.909 229.658 96.1091 213.229Z" fill="#231F20"/>
<path opacity="0.05" d="M96.1091 213.229C98.7969 202.89 103.658 193.244 110.367 184.932C116.038 191.19 122.927 196.225 130.611 199.727C143.346 205.534 156.981 209.118 170.925 210.322C159.203 216.097 148.456 223.037 138.921 233.374C134.123 238.566 129.7 244.092 125.684 249.91C124.572 251.522 117.284 264.72 115.725 267.43H101.043C98.6068 261.512 96.7736 255.364 95.5718 249.078C94.4896 243.417 91.9089 229.658 96.1091 213.229Z" fill="#231F20"/>
<path d="M281.106 136.717L288.841 136.543C288.48 139.433 287.42 142.192 285.753 144.58C284.472 143.667 283.396 142.496 282.596 141.141C281.796 139.787 281.288 138.28 281.106 136.717Z" fill="#2B2E33"/>
<path d="M186.674 200.363L168.859 264.69C169.57 264.465 170.324 264.406 171.062 264.516C173.256 264.796 175.284 266.522 175.035 267.309H166.241L165.106 203.738L186.674 200.363Z" fill="url(#paint4_linear_206_1772)"/>
<path opacity="0.1" d="M186.674 200.363L168.859 264.69C169.57 264.465 170.324 264.406 171.062 264.516C173.256 264.796 175.284 266.522 175.035 267.309H166.241L165.106 203.738L186.674 200.363Z" fill="#231F20"/>
<path d="M109.368 216.816C119.206 202.316 137.044 193.075 154.45 195.172C159.823 218.117 149.016 250.069 132.904 267.263H101.815C97.3728 250.311 99.5296 231.323 109.368 216.816Z" fill="#F15A29"/>
<path opacity="0.1" d="M100.65 244.295C103.51 245.581 106.394 246.792 109.3 247.95H109.398C115.786 248.959 122.188 249.819 128.606 250.531H129.044C134.619 250.529 140.174 249.889 145.603 248.624C142.282 255.393 138.02 261.659 132.942 267.233H101.853C99.8522 259.649 99.199 251.772 99.9233 243.962L100.65 244.295Z" fill="#231F20"/>
<path d="M152.619 267.263H109.731C118.773 263.076 128.658 261.031 138.618 261.285L151.605 261.913L152.619 267.263Z" fill="url(#paint5_linear_206_1772)"/>
<path d="M261.854 127.885C261.717 127.447 261.574 127.008 261.453 126.561C261.127 125.411 260.915 123.292 259.735 122.724C257.865 121.831 257.267 125.623 257.086 127.954L255.64 127.999C255.817 126.429 256.193 124.888 256.76 123.413C257.184 122.3 257.805 121.188 259.144 121.188C260.484 121.188 261.354 122.285 261.831 123.39C262.418 124.857 262.923 126.355 263.344 127.878L261.854 127.885Z" fill="#2B2E33"/>
<path d="M241.049 127.885C240.913 127.447 240.769 127.008 240.648 126.561C240.323 125.411 240.111 123.292 238.93 122.724C237.061 121.831 236.463 125.623 236.282 127.954L234.836 127.999C235.013 126.429 235.389 124.888 235.956 123.413C236.38 122.3 237.001 121.188 238.34 121.188C239.68 121.188 240.55 122.285 241.027 123.39C241.613 124.857 242.119 126.355 242.54 127.878L241.049 127.885Z" fill="#2B2E33"/>
<path d="M207.993 83.9916C211.084 88.3411 213.365 93.2119 214.728 98.3706L205.117 98.9004C205.446 93.8297 206.412 88.8207 207.993 83.9916Z" fill="#EDE7DC"/>
<path opacity="0.1" d="M217.15 93.9889C217.612 95.5025 217.952 96.9328 218.202 98.1966L200.796 99.1502C201.026 96.6519 201.395 94.1683 201.901 91.7109C206.678 93.8561 211.954 94.6443 217.15 93.9889Z" fill="#231F20"/>
<defs>
<linearGradient id="paint0_linear_206_1772" x1="193.485" y1="213.736" x2="193.485" y2="280.931" gradientUnits="userSpaceOnUse">
<stop stop-color="#F15A29"/>
<stop offset="1" stop-color="#231F20"/>
</linearGradient>
<linearGradient id="paint1_linear_206_1772" x1="154.662" y1="191.077" x2="114.809" y2="225.89" gradientUnits="userSpaceOnUse">
<stop stop-color="#F15A29"/>
<stop offset="1" stop-color="#9C3A1B"/>
</linearGradient>
<linearGradient id="paint2_linear_206_1772" x1="-7841.36" y1="9943.94" x2="-8781.53" y2="10535" gradientUnits="userSpaceOnUse">
<stop stop-color="#F15A29"/>
<stop offset="1" stop-color="#9C3A1B"/>
</linearGradient>
<linearGradient id="paint3_linear_206_1772" x1="-10316" y1="10877.6" x2="-11445.2" y2="11619.1" gradientUnits="userSpaceOnUse">
<stop stop-color="#F15A29"/>
<stop offset="1" stop-color="#9C3A1B"/>
</linearGradient>
<linearGradient id="paint4_linear_206_1772" x1="-11505.6" y1="36128" x2="-11505.6" y2="42072.1" gradientUnits="userSpaceOnUse">
<stop stop-color="#F15A29"/>
<stop offset="1" stop-color="#231F20"/>
</linearGradient>
<linearGradient id="paint5_linear_206_1772" x1="-26586.7" y1="3892.84" x2="-24564.4" y2="3204.44" gradientUnits="userSpaceOnUse">
<stop stop-color="#F15A29"/>
<stop offset="1" stop-color="#231F20"/>
</linearGradient>
</defs>
</svg>
