<svg id="btn_close" width="24" height="24" viewBox="0 0 24 24" fill="none" xmlns="http://www.w3.org/2000/svg">
<circle cx="12" cy="12" r="12" fill="#AA9988"/>
<path d="M16.2455 8.944L16.9485 7.956C16.3215 7.272 15.4665 6.702 14.4405 6.075C13.4715 7.386 12.3885 8.83 11.6095 9.856C10.6595 8.83 10.8495 9.039 10.4885 8.583H10.4695L9.46246 7.196C8.55046 7.614 8.05646 7.88 7.94246 7.994C7.75246 8.165 7.44846 8.526 7.01146 9.115C7.98046 10.179 9.12046 11.718 9.76646 12.421C8.85446 13.542 7.56246 15.195 7.08746 16.012C7.88546 16.772 8.75946 17.285 9.69046 17.684C10.2225 16.772 11.0585 15.518 11.7235 14.834C12.1985 15.385 13.9465 17.399 14.1935 17.665L14.9535 18.615C16.3215 18.254 17.1005 17.627 17.4805 16.753L16.7205 15.841C16.2645 15.328 14.8015 13.333 14.4215 12.934V12.953L13.7565 12.193C14.4595 11.224 14.7255 10.939 15.2385 10.255C15.6375 9.742 15.9985 9.286 16.2455 8.944Z" fill="#FCF9F3"/>
</svg>
