<svg id="btn_info" width="25" height="24" viewBox="0 0 25 24" fill="none" xmlns="http://www.w3.org/2000/svg">
<circle cx="12.0834" cy="12" r="12" fill="#AA9988"/>
<path d="M13.6326 7.011C13.5566 6.061 12.7396 5.358 11.7326 5.358C10.8016 5.358 9.83262 6.061 9.83262 7.011C9.83262 7.961 10.8396 8.683 11.7326 8.683C12.7206 8.683 13.5756 7.999 13.6326 7.011ZM14.2216 19.627C14.1266 17.423 13.9556 15.618 13.8796 14.782C13.7276 13.072 13.6326 11.666 13.5756 11.324L13.5946 11.362L13.4616 10.165C12.3596 10.013 11.2766 10.146 10.2506 10.469C10.6306 13.965 10.9156 17.746 11.0106 19.703C12.0936 19.893 12.3596 19.893 12.5876 19.893C13.1386 19.855 14.2216 19.627 14.2216 19.627Z" fill="#FCF9F3"/>
</svg>
