<svg id="btn_help" width="25" height="24" viewBox="0 0 25 24" fill="none" xmlns="http://www.w3.org/2000/svg">
<circle cx="12.0834" cy="12" r="12" fill="#889933"/>
<path d="M16.1241 8.303C16.1241 6.061 14.4521 4.142 12.0011 4.142C10.5571 4.142 8.67614 5.016 7.72614 6.232L9.30314 8.303C9.72114 7.866 9.94914 7.676 10.0821 7.562C10.5381 7.258 11.1271 6.764 11.7351 6.764C12.3241 6.764 12.7421 7.315 12.7421 7.999C12.7421 8.702 12.2671 9.234 11.7351 9.766C10.7471 10.716 9.94914 11.533 9.62614 12.464C9.51214 12.882 9.43614 13.262 9.43614 13.642C9.43614 13.946 9.55014 14.516 9.75914 15.276L12.8561 14.991C12.7611 14.44 12.6661 13.908 12.6661 13.794C12.6661 13.547 12.7041 13.376 12.7421 13.262C12.9321 12.635 13.4261 12.179 13.9201 11.704C15.0221 10.697 16.1241 9.69 16.1241 8.303ZM13.3121 18.259C13.3121 17.252 12.4761 16.511 11.5261 16.511C10.4051 16.511 9.66414 17.385 9.66414 18.335C9.66414 19.323 10.3101 20.159 11.4501 20.159C12.6281 20.159 13.3121 19.19 13.3121 18.259Z" fill="#FCF9F3"/>
</svg>
