<svg width="132" height="72" viewBox="0 0 132 72" fill="none" xmlns="http://www.w3.org/2000/svg">
<path d="M21.984 7.16972L19.728 7.69772C13.2 8.80172 9.504 9.47373 8.928 9.61773C6.576 10.0977 3.696 10.9617 0.912 11.8257L2.928 25.9857L0 26.5137L1.488 32.9457L3.936 32.4657L5.952 45.9537C8.352 46.1457 9.6 46.0977 10.464 45.9057C10.944 45.8097 11.424 45.7137 14.064 44.5617C13.344 40.4337 12.528 35.2017 11.856 30.7857H11.904C13.872 30.5457 15.648 30.2097 16.944 29.9697L20.976 29.1537C21.12 27.2337 21.12 25.9857 21.024 25.3137C20.88 24.7857 20.688 23.6817 19.824 22.1937C19.344 22.2897 16.848 23.0097 16.272 23.1057C14.688 23.3937 13.104 23.8257 10.8 24.0177C10.272 20.8497 9.984 18.8337 9.648 16.5777C12.288 16.0977 15.408 15.5217 19.248 14.7537L23.28 14.0817C23.088 11.2017 22.848 9.80972 21.984 7.16972Z" fill="#664422"/>
<path d="M43.3822 43.8417L44.7262 43.2177C44.1502 40.0497 43.7183 35.9697 43.4303 33.4257C43.2383 31.6497 43.1423 29.0097 43.1423 27.1857C43.1423 26.5617 43.2383 24.7857 43.2863 24.1617C41.4143 23.4897 40.0703 23.1537 39.1103 23.1537C38.4863 23.1537 36.8542 23.4417 35.1742 23.7297C35.1262 25.2657 35.4623 28.0977 35.1263 29.8737C34.7423 31.8417 34.4062 32.5617 33.9743 33.5217C33.5903 34.2897 31.9102 35.4417 31.2862 35.4417C30.5182 35.1057 30.0382 33.8577 30.0382 31.6977C30.0382 30.1137 30.3263 25.5537 30.6623 20.5137C28.5983 19.9857 25.9582 19.6497 22.6462 19.6497C22.5022 21.4257 22.2142 24.8817 22.0222 26.7057C21.7822 29.3457 21.6383 31.5057 21.6383 33.2817C21.6383 39.6657 24.2302 42.8337 29.4622 42.8337C31.5743 42.8337 34.5983 41.8257 36.2303 40.0497C36.2783 40.3377 36.9022 43.3137 37.0462 44.7537C40.2622 44.6097 42.4222 44.3217 43.3822 43.8417Z" fill="#664422"/>
<path d="M66.8865 26.8497C66.9345 24.7857 65.9265 21.3777 64.5345 19.9857C63.0465 18.3537 61.4145 17.6817 58.9185 18.0177C57.4305 18.2097 54.8865 20.9937 53.8305 21.9537C53.8305 21.9537 53.6385 19.5057 53.5425 17.4417C53.5425 17.4417 47.3985 18.1617 45.5265 18.9777C45.7665 21.7137 45.8625 22.9617 45.9105 25.5537C46.0545 32.1297 45.8625 35.0097 45.5745 40.5777L45.5265 44.4177L54.3585 44.5617C53.9745 38.9457 54.0225 38.6097 53.9745 36.3537C53.8785 34.1937 54.0225 32.0817 54.0705 30.2097L55.2225 28.4817C57.1425 26.3217 57.7185 25.9857 58.9185 25.6977C59.5425 25.5537 59.7825 26.5137 59.7825 27.3297L59.6385 30.8817C61.9905 30.8817 66.9825 29.9697 66.9825 29.9697L66.8865 26.8497Z" fill="#664422"/>
<path d="M91.1722 45.2817L92.6123 44.5617C91.3643 41.0577 90.8363 35.8737 90.5003 31.6497C90.1163 26.2737 89.8762 16.3377 89.4922 12.5457C89.2522 10.4817 89.1082 8.89773 89.0602 7.98573C89.0122 6.64173 89.0603 5.44172 89.2043 4.52972L89.6363 1.93773C87.3803 0.497725 84.6443 0.209722 81.0443 0.833722C80.6123 3.28172 80.4203 5.24972 80.5163 6.83372C80.5642 8.22572 80.8522 10.0497 81.1882 12.4497C81.6202 14.9457 81.8122 17.5857 81.9082 20.4177C81.2362 20.0817 80.0842 19.7457 79.1722 19.7937C74.7082 19.9857 71.5403 21.4257 69.4283 25.0257C67.8923 27.7617 67.1723 30.4017 67.3163 33.2337C67.3643 35.8737 68.2283 38.2257 69.8603 40.0497C71.5883 41.9217 73.7003 43.1217 76.9163 43.1697C78.8843 43.1217 81.4763 41.9217 83.2043 40.5777C83.2523 42.3537 83.9243 45.6657 84.5963 46.5297C88.5323 46.3857 90.0202 45.9537 91.1722 45.2817ZM77.5882 36.2577C76.3882 36.2577 75.6683 35.4417 75.5723 33.6177C75.5243 31.8417 76.0042 30.2097 77.0602 28.7697C78.1642 27.2337 79.3162 26.8977 80.4202 26.7057C80.6122 26.6577 81.2363 26.8017 82.1963 27.3297C82.3403 28.9617 82.4362 30.9297 82.5322 31.8897C82.5322 32.3697 82.6762 33.1377 82.7243 34.0977C80.6122 35.5377 78.9322 36.2577 77.5882 36.2577Z" fill="#664422"/>
<path d="M102.541 45.9537C102.445 44.2737 102.157 40.8657 102.205 37.5057C102.301 31.7457 102.301 22.3857 102.349 19.6497C102.541 12.9777 102.253 9.28173 102.973 0.401731C102.349 0.305729 99.2291 0.0177281 98.7491 0.0177281C97.2131 -0.0782707 95.6771 0.209723 93.5171 1.02572C93.8531 1.93772 94.3811 3.47372 94.2851 4.67372C94.5731 10.8657 94.4771 17.4417 94.4771 23.7777C94.4771 29.5377 94.6691 33.8577 94.3331 38.9457C94.2851 41.4417 94.1411 46.3857 94.1411 46.3857C96.1571 47.0577 101.629 46.4337 102.541 45.9537Z" fill="#664422"/>
<path d="M113.126 33.9537L126.71 31.5057C126.902 21.4257 123.302 16.1457 115.958 15.7137H116.006C111.206 15.3777 107.51 18.2577 105.302 23.5857C104.63 25.3137 104.246 27.4737 104.246 29.3457C104.246 32.5137 104.917 35.6337 106.549 38.6097C107.749 40.8177 109.862 42.6417 113.03 44.1777H112.982C114.806 45.1377 117.158 45.7617 119.462 46.1457L122.87 46.7697C124.598 43.9377 125.654 40.9137 126.038 37.6017C123.206 37.9857 121.142 38.2737 120.614 38.2737C116.774 38.2737 114.326 36.9777 113.126 33.9537ZM112.406 27.9057C112.406 26.9937 112.598 25.8897 112.982 24.7377C113.558 23.1537 114.806 22.2417 115.478 22.2897C116.294 22.2897 116.87 22.6257 117.302 23.6817C117.686 24.7377 117.638 25.6017 117.734 26.9937C115.91 27.3297 114.134 27.5697 112.406 27.9057Z" fill="#664422"/>
<path d="M7.41 56.6768L7.305 55.2668C6.54 55.0268 5.67 55.1018 4.71 55.4018C4.83 56.9168 4.935 59.2868 4.935 60.3518V60.7718C4.74 60.8018 4.95 60.8018 4.755 60.8018C4.245 60.8018 4.005 60.8318 3.645 60.4568C3.24 60.0968 3.06 58.2818 3.06 57.4718C3.06 57.1868 3.09 56.9318 3.12 56.7818L3.225 55.9418C2.685 55.6718 1.32 55.5818 0.645 55.6568C0.57 56.3318 0.54 56.8268 0.54 57.1868C0.54 58.7468 0.72 61.2518 1.695 62.1818C2.58 62.9918 3.51 62.8868 4.47 62.8868C4.785 62.8868 4.68 62.8568 4.92 62.8118C4.83 63.7118 4.68 64.4918 4.365 64.8068C4.11 65.0618 3.78 65.1518 3.48 65.1518C3.12 65.1518 2.76 65.0618 2.55 64.9268L1.89 64.4168L0.66 66.3368L1.185 66.7418C1.74 67.0718 2.565 67.4018 3.42 67.4018C4.44 67.4018 5.49 66.9818 6.165 66.3368C7.23 65.3018 7.455 63.6668 7.53 61.7918C7.545 61.4468 7.545 61.0418 7.545 60.5768C7.545 59.2418 7.5 57.6368 7.41 56.6768Z" fill="#DDAA33"/>
<path d="M14.5504 61.7168C14.4904 59.2568 12.5254 58.0418 10.9504 58.0418C8.76035 58.0418 7.53035 59.7968 7.53035 61.5368C7.53035 62.5418 7.71035 63.4268 8.41535 64.2968C9.13535 65.2118 10.0954 65.6768 11.2504 65.6768C12.3754 65.6768 13.2304 65.2118 13.8904 64.3568C14.4754 63.5618 14.5354 62.6318 14.5504 61.7168ZM12.1654 61.5368C12.2254 61.8218 12.2704 62.0768 12.2704 62.2868C12.2704 62.6918 11.9704 63.3368 11.2654 63.3368C10.5304 63.3368 9.93035 62.1068 9.93035 61.2518C9.93035 60.9068 10.1854 60.2168 10.7704 60.2168C11.3554 60.2168 12.0004 60.9218 12.1654 61.5368Z" fill="#DDAA33"/>
<path d="M21.6247 65.6768L22.0447 65.4818C21.8647 64.4918 21.7297 63.2168 21.6397 62.4218C21.5797 61.8668 21.5497 61.0418 21.5497 60.4718C21.5497 60.2768 21.5797 59.7218 21.5947 59.5268C21.0097 59.3168 20.5897 59.2118 20.2897 59.2118C20.0947 59.2118 19.5847 59.3018 19.0597 59.3918C19.0447 59.8718 19.1497 60.7568 19.0447 61.3118C18.9247 61.9268 18.8197 62.1518 18.6847 62.4518C18.5647 62.6918 18.0397 63.0518 17.8447 63.0518C17.6047 62.9468 17.4547 62.5568 17.4547 61.8818C17.4547 61.3868 17.5447 59.9618 17.6497 58.3868C17.0047 58.2218 16.1797 58.1168 15.1447 58.1168C15.0997 58.6718 15.0097 59.7518 14.9497 60.3218C14.8747 61.1468 14.8297 61.8218 14.8297 62.3768C14.8297 64.3718 15.6397 65.3618 17.2747 65.3618C17.9347 65.3618 18.8797 65.0468 19.3897 64.4918C19.4047 64.5818 19.5997 65.5118 19.6447 65.9618C20.6497 65.9168 21.3247 65.8268 21.6247 65.6768Z" fill="#DDAA33"/>
<path d="M33.9735 57.6368C33.9735 57.1568 33.8685 56.6918 33.6285 56.2568C33.0435 55.1168 31.7835 54.5468 29.8635 54.5468C28.6935 54.5468 26.5935 55.0718 25.7535 55.2968L25.9035 57.4268L26.4585 57.2768C26.6235 62.2718 26.7135 64.7168 26.7135 65.0468C26.7135 65.6168 26.7435 66.0818 26.6835 67.0718C27.3585 67.2818 28.2435 67.2218 29.3835 66.9518C29.3085 65.5418 29.1585 64.1318 29.0535 62.6468C29.7585 62.6318 30.3435 62.5118 30.8085 62.3018C31.7235 61.8668 32.4435 61.4318 33.0135 60.5768C33.5835 59.6768 33.9735 58.4918 33.9735 57.6368ZM31.3935 57.9218C31.3785 58.7768 30.8385 59.7968 30.4485 60.1118C30.0735 60.4568 29.5785 60.6218 28.9785 60.6218C28.9185 59.3018 28.8585 58.1768 28.8135 56.8268C29.1585 56.7668 29.4135 56.7368 29.5785 56.7368C30.1185 56.7518 30.5835 56.7368 30.9735 56.9468C31.2585 57.1268 31.3935 57.4568 31.3935 57.9218Z" fill="#DDAA33"/>
<path d="M37.5004 66.3368C37.4704 65.8118 37.3804 64.7468 37.3954 63.6968C37.4254 61.8968 37.4254 58.9718 37.4404 58.1168C37.5004 56.0318 37.4104 54.8768 37.6354 52.1018C37.4404 52.0718 36.4654 51.9818 36.3154 51.9818C35.8354 51.9518 35.3554 52.0418 34.6804 52.2968C34.7854 52.5818 34.9504 53.0618 34.9204 53.4368C35.0104 55.3718 34.9804 57.4268 34.9804 59.4068C34.9804 61.2068 35.0404 62.5568 34.9354 64.1468C34.9204 64.9268 34.8754 66.4718 34.8754 66.4718C35.5054 66.6818 37.2154 66.4868 37.5004 66.3368Z" fill="#DDAA33"/>
<path d="M45.1772 65.5568C44.7722 65.2418 44.6222 64.3718 44.6222 62.8568C44.6222 62.5118 44.6222 62.2118 44.6372 61.5518C44.6372 61.1318 44.6672 60.6668 44.6672 60.3068C44.6672 59.5568 44.6072 58.9418 44.4572 58.4918C44.2322 57.7268 43.6322 57.1868 42.7922 56.9318C42.4472 56.7968 42.0272 56.7218 41.5472 56.7218C40.5422 56.7218 39.6272 57.0218 38.7722 57.6218C38.6972 57.8468 38.6972 58.4618 38.7872 58.7768C38.9222 59.2718 39.0572 59.7368 39.3422 59.9318C39.7172 59.5718 40.1072 59.3918 40.4072 59.2118C40.5572 59.1368 41.3822 58.8968 41.5172 58.8668C41.8172 58.7918 41.9372 58.7468 42.0422 59.3918L42.0722 60.0368V60.4268C41.8172 60.3668 41.4422 60.3068 41.1572 60.3068C40.4072 60.3068 39.7622 60.5018 39.2522 60.9218C38.6972 61.3868 38.3072 62.0468 38.1272 62.7068C38.0522 62.9768 38.0222 63.2468 38.0222 63.5318C38.0222 65.1818 39.3422 65.9318 40.8872 65.9318C41.2622 65.9318 41.9522 65.5868 42.2822 65.4668C42.2822 65.4668 42.4172 66.4718 42.6872 66.7718C43.2272 66.8168 43.8422 66.6818 44.5622 66.2318C44.8622 66.0518 45.1772 65.5568 45.1772 65.5568ZM41.9822 62.2718L42.1022 62.3918L42.1172 63.5468C41.9822 63.9968 41.4572 64.1768 41.0972 64.1768C40.8272 64.1768 40.6472 63.8918 40.6472 63.2468C40.6472 62.8268 40.8872 61.9418 41.2022 61.9418C41.4122 61.9418 41.7422 62.0318 41.9822 62.2718Z" fill="#DDAA33"/>
<path d="M52.7878 59.3768L53.1628 58.6418C52.6978 58.0868 51.9328 57.7568 50.9578 57.6368C50.3728 58.8668 49.5778 60.5768 48.8278 62.3018C48.6178 62.0168 48.3928 61.6268 48.1978 61.2218C47.8528 60.5318 47.5978 59.5568 47.4478 58.3418C46.6228 58.1918 45.5578 58.0118 44.8378 58.4318C44.8528 59.5718 45.1828 61.1168 45.7978 62.2118C46.3228 63.1568 47.0278 63.9667 47.8678 64.5667C47.4178 65.6467 47.1328 66.3668 46.6978 67.4618C46.4128 68.2868 45.9928 69.4418 45.7078 70.1018V70.0868C45.6478 70.2218 45.4828 70.6268 45.3928 70.8068C45.8278 71.3918 46.5778 71.6918 47.6578 71.7668C48.0028 70.8218 48.4528 69.7418 48.6628 69.1418C48.9928 68.3168 49.0228 68.3018 49.2778 67.6268C51.1078 63.0668 52.1428 60.7868 52.8028 59.3768H52.7878Z" fill="#DDAA33"/>
<path d="M56.3911 64.3268C56.3911 63.5318 55.7161 62.9468 54.9811 62.9468C54.0961 62.9468 53.5111 63.6368 53.5111 64.3868C53.5111 65.1668 54.0061 65.8268 54.9211 65.8268C55.8511 65.8268 56.3911 65.0618 56.3911 64.3268Z" fill="#DDAA33"/>
<path d="M71.0195 55.6268C70.5695 55.4468 70.2245 55.1318 69.3245 55.1318C69.0695 56.3018 68.6795 57.7118 68.4845 59.1368C68.4545 59.5718 68.3795 60.8768 68.3195 61.2518L66.3695 56.6018H65.2745C65.0195 57.3218 63.9245 59.5568 63.5045 60.7118C63.2345 58.9718 63.2345 57.7118 63.1745 56.1368C63.1745 55.9718 63.1595 55.7618 63.1595 55.6268L63.0695 54.5918C61.9295 54.6968 60.9995 54.9518 60.2345 55.4168L60.3395 56.1668C60.8645 58.9568 60.8645 60.6968 61.5095 63.7868C61.5395 63.9368 61.5995 64.1618 61.6445 64.4618C61.7045 64.7918 61.8845 65.5717 61.9745 66.0667L63.4445 66.3068L65.7395 61.3418L68.1545 66.3518L69.9695 65.5118C70.1045 64.6718 70.3595 62.8418 70.6595 60.7118C70.9145 58.8368 71.4545 56.9618 71.6495 55.9118C71.6495 55.9118 71.1395 55.6868 71.0195 55.6268Z" fill="#889933"/>
<path d="M74.4824 62.5868L78.7274 61.8218C78.7874 58.6718 77.6624 57.0218 75.3674 56.8868H75.3824C73.8824 56.7818 72.7274 57.6818 72.0374 59.3468C71.8274 59.8868 71.7074 60.5618 71.7074 61.1468C71.7074 62.1368 71.9174 63.1118 72.4274 64.0418C72.8024 64.7318 73.4624 65.3018 74.4524 65.7818H74.4374C75.0074 66.0818 75.7424 66.2768 76.4624 66.3968L77.5274 66.5918C78.0674 65.7068 78.3974 64.7618 78.5174 63.7268C77.6324 63.8468 76.9874 63.9368 76.8224 63.9368C75.6224 63.9368 74.8574 63.5318 74.4824 62.5868ZM74.2574 60.6968C74.2574 60.4118 74.3174 60.0668 74.4374 59.7068C74.6174 59.2118 75.0074 58.9268 75.2174 58.9418C75.4724 58.9418 75.6524 59.0468 75.7874 59.3768C75.9074 59.7068 75.8924 59.9768 75.9224 60.4118C75.3524 60.5168 74.7974 60.5918 74.2574 60.6968Z" fill="#889933"/>
<path d="M90.7758 59.6168C90.5508 58.1168 89.5908 56.8268 88.7658 56.3318C87.7458 55.7468 86.1258 55.6568 84.3858 55.9568C84.1458 55.9868 83.0208 56.2268 82.3758 56.3618C82.3608 56.9168 82.4208 57.2318 82.4508 57.3668C82.4958 57.6218 82.5708 58.0418 82.7958 58.5668C83.0208 58.5218 83.3208 58.4768 83.5758 58.4018L84.9258 66.3968C87.3858 65.8118 89.6058 64.8668 90.3558 63.5318C90.8358 62.6168 91.0008 61.1618 90.7758 59.6168ZM88.2258 59.7668C88.4658 61.0718 88.3758 61.8518 88.1658 62.4218C88.0008 63.0368 87.2358 63.1718 86.9208 63.3218C86.5308 61.3268 86.2908 59.9618 85.9608 58.0868C86.4708 58.1018 87.0108 58.1918 87.3858 58.4018C87.6108 58.5518 88.1058 59.0318 88.2258 59.7668Z" fill="#889933"/>
<path d="M98.4091 61.7168C98.3491 59.2568 96.3841 58.0418 94.8091 58.0418C92.6191 58.0418 91.3891 59.7968 91.3891 61.5368C91.3891 62.5418 91.5691 63.4268 92.2741 64.2968C92.9941 65.2118 93.9541 65.6768 95.1091 65.6768C96.2341 65.6768 97.0891 65.2118 97.7491 64.3568C98.3341 63.5618 98.3941 62.6318 98.4091 61.7168ZM96.0241 61.5368C96.0841 61.8218 96.1291 62.0768 96.1291 62.2868C96.1291 62.6918 95.8291 63.3368 95.1241 63.3368C94.3891 63.3368 93.7891 62.1068 93.7891 61.2518C93.7891 60.9068 94.0441 60.2168 94.6291 60.2168C95.2141 60.2168 95.8591 60.9218 96.0241 61.5368Z" fill="#889933"/>
<path d="M105.656 62.1818C105.716 61.6118 105.836 60.9518 105.836 60.4418C105.836 59.3168 105.566 58.1768 104.276 57.6218C104.006 57.5168 103.421 57.4418 103.106 57.5168C102.356 57.6818 101.516 58.4468 101.156 59.0018C101.156 58.8218 101.096 57.6218 101.096 57.6218C100.106 57.5168 99.1313 57.7118 98.6363 57.8318C98.6363 57.8318 98.8913 60.9218 98.8763 61.8068C98.8613 62.7818 98.6963 66.0818 98.6963 66.0818L101.306 65.8568C101.246 65.6168 101.306 63.4118 101.321 63.0518C101.336 62.6168 101.351 62.2118 101.321 61.2668C101.756 60.7118 102.776 59.7968 103.046 59.7818C103.196 59.8868 103.271 60.2168 103.271 60.6068C103.271 61.2668 103.181 61.8218 103.076 62.4218C102.926 63.2018 102.851 64.1468 102.791 64.5518C102.746 64.8668 102.746 65.1668 102.656 65.7368L105.596 66.2768C105.491 65.2718 105.491 65.1368 105.491 64.9868C105.491 64.0418 105.566 62.7218 105.656 62.1818Z" fill="#889933"/>
<path d="M113.398 65.5568C112.993 65.2418 112.843 64.3718 112.843 62.8568C112.843 62.5118 112.843 62.2118 112.858 61.5518C112.858 61.1318 112.888 60.6668 112.888 60.3068C112.888 59.5568 112.828 58.9418 112.678 58.4918C112.453 57.7268 111.853 57.1868 111.013 56.9318C110.668 56.7968 110.248 56.7218 109.768 56.7218C108.763 56.7218 107.848 57.0218 106.993 57.6218C106.918 57.8468 106.918 58.4618 107.008 58.7768C107.143 59.2718 107.278 59.7368 107.563 59.9318C107.938 59.5718 108.328 59.3918 108.628 59.2118C108.778 59.1368 109.603 58.8968 109.738 58.8668C110.038 58.7918 110.158 58.7468 110.263 59.3918L110.293 60.0368V60.4268C110.038 60.3668 109.663 60.3068 109.378 60.3068C108.628 60.3068 107.983 60.5018 107.473 60.9218C106.918 61.3868 106.528 62.0468 106.348 62.7068C106.273 62.9768 106.243 63.2468 106.243 63.5318C106.243 65.1818 107.563 65.9318 109.108 65.9318C109.483 65.9318 110.173 65.5868 110.503 65.4668C110.503 65.4668 110.638 66.4718 110.908 66.7718C111.448 66.8168 112.063 66.6818 112.783 66.2318C113.083 66.0518 113.398 65.5568 113.398 65.5568ZM110.203 62.2718L110.323 62.3918L110.338 63.5468C110.203 63.9968 109.678 64.1768 109.318 64.1768C109.048 64.1768 108.868 63.8918 108.868 63.2468C108.868 62.8268 109.108 61.9418 109.423 61.9418C109.633 61.9418 109.963 62.0318 110.203 62.2718Z" fill="#889933"/>
<path d="M118.958 60.7568L120.443 60.7418C120.488 60.5168 120.533 59.8568 120.533 59.6618C120.533 59.3318 120.548 58.8668 120.323 58.4018L119.108 58.4768C118.643 58.5068 118.058 58.5368 117.593 58.5818C117.593 57.9368 117.593 58.1018 117.623 57.7568C117.668 56.7818 117.728 56.3318 117.743 55.7768L117.788 55.1768L117.818 54.2618C117.098 53.9768 116.228 53.8868 115.223 53.9918C115.133 55.3568 115.013 56.7068 114.983 57.6368C114.953 57.9218 114.953 58.3568 114.953 58.8368C114.788 58.8518 114.203 58.8068 113.813 58.8068V61.1018C114.023 61.0868 114.518 61.0568 114.998 61.0118V62.3168C114.983 63.3368 114.983 63.9968 114.983 64.2818C114.968 65.9168 115.553 66.8468 116.693 67.0868H116.678C116.858 67.1318 117.068 67.1468 117.233 67.1468C118.583 67.1468 120.458 66.2318 121.118 64.2818C120.623 63.6668 119.993 63.3968 119.168 63.2768C119.108 63.4268 118.343 64.5518 118.088 64.5818C117.743 64.5818 117.638 64.0718 117.638 63.5768C117.638 62.2868 117.668 61.3118 117.668 60.7718C118.028 60.7568 118.658 60.7568 118.958 60.7568Z" fill="#889933"/>
<path d="M124.047 62.5868L128.292 61.8218C128.352 58.6718 127.227 57.0218 124.932 56.8868H124.947C123.447 56.7818 122.292 57.6818 121.602 59.3468C121.392 59.8868 121.272 60.5618 121.272 61.1468C121.272 62.1368 121.482 63.1118 121.992 64.0418C122.367 64.7318 123.027 65.3018 124.017 65.7818H124.002C124.572 66.0818 125.307 66.2768 126.027 66.3968L127.092 66.5918C127.632 65.7068 127.962 64.7618 128.082 63.7268C127.197 63.8468 126.552 63.9368 126.387 63.9368C125.187 63.9368 124.422 63.5318 124.047 62.5868ZM123.822 60.6968C123.822 60.4118 123.882 60.0668 124.002 59.7068C124.182 59.2118 124.572 58.9268 124.782 58.9418C125.037 58.9418 125.217 59.0468 125.352 59.3768C125.472 59.7068 125.457 59.9768 125.487 60.4118C124.917 60.5168 124.362 60.5918 123.822 60.6968Z" fill="#889933"/>
<path d="M131.797 64.3268C131.797 63.5318 131.122 62.9468 130.387 62.9468C129.502 62.9468 128.917 63.6368 128.917 64.3868C128.917 65.1668 129.412 65.8268 130.327 65.8268C131.257 65.8268 131.797 65.0618 131.797 64.3268Z" fill="#889933"/>
<path d="M117.837 10.2346L120 9.98409C119.827 8.66203 119.192 5.4334 118.716 4L117 4.54274C116.798 5.1829 116.423 6.19881 116.048 7.06163C115.486 6.26839 115.356 5.7674 115.096 5.19682L113.726 5.08549L113.712 4.167L108 4.30616L108.029 6.25447L109.428 6.22664L109.558 10.4294L111.75 10.4016C111.721 9.14911 111.663 7.49304 111.62 6.14314L113.149 6.12922C112.832 7.67396 112.543 9.80318 112.471 10.7773L114.663 11C114.707 10.4433 114.793 9.3161 114.894 8.67594C115.024 8.85686 115.817 10.2763 115.962 10.4573L116.697 10.2903C116.928 9.58052 117.288 8.42545 117.562 7.8827C117.808 8.87078 117.736 9.49702 117.837 10.2346Z" fill="#664422"/>
</svg>
