<svg width="300" height="300" viewBox="0 0 300 300" fill="none" xmlns="http://www.w3.org/2000/svg">
<path opacity="0.1" d="M205.342 263.365H7C7 263.365 98.4645 310.102 205.342 263.365Z" fill="#231F20"/>
<path d="M109.95 262.182C110.127 261.611 110.505 261.123 111.014 260.809C111.461 260.652 111.945 260.627 112.406 260.74L130.792 263.355L131.847 261.664C127.869 256.693 127.491 249.841 128.078 243.547C129.072 233.354 132.433 222.943 139.881 215.922C143.587 212.464 148.203 210.135 153.186 209.21C158.606 208.216 162.931 209.489 167.864 211.507C167.804 215.624 167.516 219.89 165.616 223.619C163.738 227.235 161.677 230.753 159.441 234.159C157.021 237.898 154.433 241.521 151.675 245.028C151.009 245.873 143.382 254.515 143.421 254.564C146.308 258.25 149.537 261.652 153.067 264.727L148.632 269.699L106.171 270.554C107.424 267.777 108.684 264.986 109.95 262.182Z" fill="#9E6A4F"/>
<path d="M190.188 200.509C196.005 200.38 202.478 198.312 204.964 193.051C204.295 192.11 203.436 191.318 202.443 190.727C201.45 190.137 200.344 189.76 199.197 189.621C196.904 189.35 194.582 189.485 192.336 190.018C195.538 185.156 198.829 179.498 197.397 173.849C194.785 174.183 192.323 175.259 190.303 176.949C188.283 178.639 186.79 180.873 186.001 183.386C187.165 177.787 186.14 171.955 183.138 167.088C179.149 171.03 176.624 176.214 175.978 181.785C175.411 185.309 175.754 188.92 176.972 192.276C177.597 193.943 178.561 195.462 179.804 196.738C181.047 198.013 182.541 199.016 184.192 199.684C186.122 200.326 188.155 200.606 190.188 200.509Z" fill="#EDE7DC"/>
<path d="M50.0363 53.3958C59.1021 62.7899 67.9729 73.1393 74.2826 84.8229C81.3366 97.866 85.246 112.526 86.8636 126.256L72.1766 107.447C54.1008 91.6947 42.5041 69.8028 39.6268 46C39.741 46.9177 48.7669 52.0971 50.0363 53.3958Z" fill="#CC8958"/>
<path d="M141.452 176.146C131.011 169.583 123.235 155.264 118.75 145.042C117.06 141.183 106.817 93.3331 112.983 94.1882C90.5391 91.205 66.8625 103.894 56.9981 124.269C52.1454 134.292 50.4948 145.539 49.6097 156.626C48.7844 167.028 48.6154 177.509 50.2064 187.84C54.6911 216.061 82.1066 257.448 124.677 261.108C151.983 263.454 208.892 241.687 194.682 204.586C190.655 194.065 181.049 186.13 170.2 183.107C162.742 181.019 154.807 181.118 147.389 178.881C145.296 178.241 143.299 177.322 141.452 176.146Z" fill="#CC8958"/>
<path opacity="0.1" d="M92.8262 165.447C87.044 166.634 81.1018 166.825 75.2552 166.014C70.5418 165.347 65.7388 163.945 62.1988 160.763C58.9272 157.78 56.6302 151.923 57.2964 147.468C58.1516 141.691 65.5399 140.338 70.3031 141.591C71.2378 141.84 80.784 146.832 79.6504 147.955C82.0071 145.619 84.1849 143.142 87.4366 141.989C96.8734 138.648 117 144.216 107.732 157.492C104.878 161.549 99.9958 163.677 95.1829 164.9C94.4073 165.099 93.6117 165.288 92.8262 165.447Z" fill="#231F20"/>
<g style="mix-blend-mode:overlay" opacity="0.2">
<path d="M101.368 112.704C104.61 115.051 106.39 118.531 104.202 122.916C102.293 126.735 98.4347 129.46 94.2582 130.941C90.017 132.271 85.5968 132.942 81.1521 132.93C77.8612 133.181 74.5515 132.885 71.3573 132.055C68.2348 131.061 65.3909 129.072 64.2374 126.089C62.4475 121.405 65.7787 116.035 70.3331 113.4C77.0452 109.512 87.6157 107.951 95.1929 109.91C97.4059 110.453 99.4995 111.4 101.368 112.704Z" fill="white"/>
</g>
<path d="M90.7181 241.727L85.1197 270.425H71.3672L76.011 267.531L75.0564 232.946L90.7181 241.727Z" fill="#9E6A4F"/>
<path d="M92.6969 158.138C90.1615 156.967 87.901 155.276 86.0626 153.174C84.2243 151.071 82.8492 148.606 82.0271 145.937C79.0439 159.083 60.8265 165.825 55.0093 152.51C52.4835 146.722 55.3176 139.523 60.4686 136.182C66.7432 132.095 75.4939 135.625 79.6505 141.283C82.0072 138.946 84.1849 136.46 87.4366 135.317C94.5863 132.781 104.083 133.895 108.568 140.587C113.43 147.836 110.556 157.144 101.726 159.192C98.6826 159.849 95.5073 159.478 92.6969 158.138Z" fill="#FBECCC"/>
<path opacity="0.5" d="M56.69 139.921C57.696 138.45 58.9797 137.19 60.4687 136.212C66.7434 132.125 75.494 135.655 79.6506 141.313C82.0073 138.976 84.1851 136.49 87.4367 135.346C94.2583 132.93 103.198 133.845 107.901 139.742C99.8782 143.811 91.0413 146.02 82.0471 146.205C82.0471 146.126 82.0471 146.046 81.9775 145.967C81.9775 146.046 81.9278 146.126 81.9079 146.215C80.0086 146.215 78.0993 146.215 76.2 146.046C69.2936 145.631 62.5945 143.527 56.69 139.921Z" fill="white"/>
<path d="M75.1459 138.25C75.3328 138.03 75.5886 137.879 75.8718 137.822C79.0453 136.88 82.4421 137.02 85.5273 138.22L82.1961 144.326C80.6379 144.31 79.1225 143.813 77.8571 142.904C76.5916 141.994 75.6379 140.716 75.126 139.244C75.0601 139.086 75.0278 138.916 75.0312 138.745C75.0346 138.574 75.0737 138.405 75.1459 138.25Z" fill="#DA6D96"/>
<path opacity="0.1" d="M80.7048 141.074C81.8442 141.122 82.9853 141.039 84.1056 140.826L82.1964 144.326C80.841 144.312 79.514 143.936 78.353 143.237C77.192 142.537 76.2393 141.54 75.5936 140.348L80.7048 141.074Z" fill="#231F20"/>
<path d="M86.0743 145.629L83.0912 154.827L80.4858 154.956L76.0111 145.629H86.0743Z" fill="white"/>
<path d="M103.482 94.9198C110.812 87.905 119.047 81.9032 127.97 77.0742C133.561 74.0248 139.383 71.4203 145.383 69.285C148.493 68.1867 151.639 67.2158 154.823 66.3721C156.095 66.0361 163.323 65.2787 163.822 64.3747C156.149 78.0238 145.17 89.5268 131.894 97.8276C121.31 104.47 109.531 108.214 98.0791 100.531C99.8107 98.5841 101.612 96.7138 103.482 94.9198Z" fill="#CC8958"/>
<path d="M111.391 223.35C114.981 227.825 118.004 232.588 122.678 236.079C125.464 238.222 128.528 239.979 131.787 241.299C135.459 242.735 139.35 243.532 143.292 243.656C146.404 244.103 178.235 239.917 177.36 238.515C178.51 240.395 179.356 242.446 179.866 244.591C163.687 256.434 139.702 262.49 124.677 261.157C89.5546 258.174 64.7742 229.446 54.6513 203.651C75.1557 201.046 94.7254 209.21 111.391 223.35Z" fill="url(#paint0_linear_206_1833)"/>
<path d="M141.462 262.182C141.509 261.915 141.613 261.661 141.768 261.439C141.922 261.216 142.123 261.03 142.357 260.893C142.591 260.756 142.851 260.671 143.121 260.645C143.39 260.618 143.662 260.651 143.918 260.74L162.305 263.355C162.653 262.788 163.001 262.221 163.359 261.664C159.381 256.693 159.003 249.841 159.59 243.547C160.584 233.354 163.945 222.943 171.393 215.922C174.642 212.969 178.528 210.804 182.749 209.598C184.002 209.2 194.145 207.351 194.682 209.668C201.076 238.097 174.585 254.117 174.933 254.565C177.823 258.247 181.052 261.65 184.579 264.727L180.154 269.699L137.683 270.554L141.462 262.182Z" fill="#CC8958"/>
<path d="M134.342 222.595V232.946L112.466 270.425H97.7188L102.86 265.105L111.809 234.786L109.821 219.542L134.342 222.595Z" fill="#CC8958"/>
<path d="M85.8854 77.8205C84.1404 82.8543 83.669 88.2418 84.5131 93.5021C84.7341 95.5341 85.4142 97.4893 86.5019 99.2199C87.062 100.075 87.8198 100.783 88.7112 101.283C89.6026 101.783 90.6014 102.061 91.623 102.094C92.2116 102.099 92.79 101.941 93.2936 101.636C93.7456 101.324 94.131 100.925 94.4272 100.463C98.5405 94.803 101.024 88.124 101.607 81.1517C97.5397 85.3083 93.3533 89.6538 91.4043 95.1329C91.0843 88.9835 89.1834 83.0206 85.8854 77.8205Z" fill="#CC8958"/>
<path d="M99.2203 121.902C100.066 121.83 100.911 122.047 101.617 122.519C103.834 124.11 102.273 127.739 99.7673 127.968C99.2927 127.987 98.8195 127.904 98.3795 127.726C97.9395 127.547 97.5427 127.276 97.216 126.931C96.8892 126.587 96.6399 126.176 96.4848 125.727C96.3297 125.278 96.2724 124.801 96.3167 124.329C96.4346 123.646 96.7912 123.027 97.3231 122.582C97.8549 122.138 98.5273 121.897 99.2203 121.902Z" fill="#414042"/>
<path d="M63.631 121.902C64.4799 121.828 65.3287 122.046 66.0374 122.519C68.2549 124.11 66.6838 127.739 64.1879 127.968C63.7133 127.987 63.2401 127.904 62.8001 127.726C62.36 127.547 61.9633 127.276 61.6365 126.931C61.3097 126.587 61.0604 126.176 60.9053 125.727C60.7502 125.278 60.6929 124.801 60.7373 124.329C60.8548 123.647 61.21 123.03 61.7398 122.585C62.2696 122.141 62.9397 121.899 63.631 121.902Z" fill="#414042"/>
<defs>
<linearGradient id="paint0_linear_206_1833" x1="143.689" y1="254.823" x2="81.5397" y2="193.171" gradientUnits="userSpaceOnUse">
<stop offset="0.01" stop-color="#9D694E"/>
<stop offset="1" stop-color="#CC8958"/>
</linearGradient>
</defs>
</svg>
