<svg width="300" height="300" viewBox="0 0 300 300" fill="none" xmlns="http://www.w3.org/2000/svg">
<path opacity="0.1" d="M233.583 262.074H9.02879C27.0041 266.185 66.5599 273.952 120.182 274.06C175.084 274.169 215.586 266.193 233.583 262.074Z" fill="#1A1A1A"/>
<path d="M140.658 177.934L147.767 230.863C144.848 241.802 141.927 252.738 139.003 263.671L123.47 264.004C124.543 262.158 126.235 260.75 128.245 260.03C129.774 259.469 131.405 259.242 133.028 259.365C134.887 250.97 136.746 242.575 138.606 234.18C129.369 231.637 121.49 225.587 116.649 217.319C111.808 209.051 110.388 199.22 112.69 189.92L140.658 177.934Z" fill="#A18976"/>
<path d="M166.724 133.516C175.279 149.945 183.828 166.377 192.373 182.811C176.412 195.431 158.536 205.416 139.422 212.389C118.592 219.953 96.5562 223.648 74.3987 223.292L42.7324 205.569C38.0298 194.137 35.9738 181.79 36.7183 169.451C37.4627 157.112 40.9883 145.102 47.0311 134.318L166.724 133.516Z" fill="url(#paint0_linear_206_433)"/>
<path opacity="0.1" d="M186.513 187.254C172.078 197.808 156.224 206.27 139.422 212.389C118.593 219.953 96.5564 223.648 74.3989 223.292L42.7325 205.569C41.8078 202.939 40.8806 200.312 39.951 197.687L77.52 216.385L186.513 187.254Z" fill="#231F20"/>
<path d="M164.239 133.516L176.189 118.835L161.544 101.496C163.712 100.484 168.155 98.8155 173.198 100C182.113 102.103 187.771 111.914 187.539 120.62C187.279 130.475 179.469 139.506 168.386 141.875L164.239 133.516Z" fill="#C2A68F"/>
<path d="M192.026 180.441C191.872 196.278 191.484 212.414 190.863 228.848C190.381 241.125 189.784 253.222 189.071 265.138H175.178C175.445 264.379 175.86 263.681 176.398 263.084C176.936 262.486 177.587 262.001 178.313 261.655C180.183 260.787 182.3 260.61 184.288 261.157C182.785 249.698 181.278 238.235 179.765 226.767C165.699 219.542 157.368 204.847 158.813 189.92C160.612 170.71 177.453 161.332 178.79 160.617C183.197 167.23 187.609 173.838 192.026 180.441Z" fill="#D3BAA5"/>
<path d="M128.245 260.03C129.774 259.469 131.405 259.242 133.028 259.365L133.216 258.505H140.383C139.921 260.232 139.466 261.952 139.003 263.671L123.47 264.003C124.544 262.157 126.235 260.75 128.245 260.03Z" fill="#615C55"/>
<path d="M178.313 261.684C180.183 260.816 182.3 260.639 184.288 261.186L183.934 258.505H189.454C189.331 260.731 189.201 262.956 189.071 265.167H175.178C175.445 264.408 175.86 263.71 176.398 263.113C176.936 262.515 177.587 262.03 178.313 261.684Z" fill="#615C55"/>
<path d="M114.612 201.191C115.184 204.896 115.51 208.634 115.587 212.382C115.645 214.896 115.587 222.562 113.29 234.187C111.194 244.688 107.781 254.884 103.132 264.531L87.8948 264.777C88.3883 263.204 89.4529 261.874 90.8786 261.049C92.8819 259.945 95.2138 259.594 97.4532 260.059L100.661 201.812L114.612 201.191Z" fill="#EEDAC9"/>
<path d="M40.565 196.452C39.686 204.156 39.3962 211.916 39.698 219.665C39.9147 225.336 40.4205 229.881 40.7456 232.604C42.0737 243.022 44.4953 253.27 47.9704 263.18L63.2075 263.425C62.7178 261.851 61.6522 260.52 60.2237 259.697C58.2209 258.593 55.8894 258.239 53.6491 258.7C53.7069 239.059 53.7623 219.41 53.8153 199.753L40.565 196.452Z" fill="#ECD7C6"/>
<path d="M90.8786 261.027C92.8819 259.923 95.2137 259.572 97.4532 260.037C97.511 258.968 97.5615 257.906 97.6193 256.836H106.513C105.4 259.589 104.259 262.154 103.132 264.509L87.8947 264.755C88.3882 263.183 89.4528 261.853 90.8786 261.027Z" fill="#615C55"/>
<path d="M53.6998 256.836L53.6131 258.7C55.8534 258.239 58.1848 258.593 60.1877 259.697C61.6162 260.52 62.6818 261.851 63.1715 263.425L47.9344 263.18C47.2312 261.166 46.5472 259.052 45.8826 256.836H53.6998Z" fill="#615C55"/>
<path opacity="0.1" d="M97.9734 137.093L98.8837 149.967L94.6644 161.953L83.6755 172.386C87.8303 171.704 91.7134 169.879 94.8895 167.115C98.0656 164.352 100.409 160.758 101.658 156.737C104.664 146.434 98.6814 138.053 97.9734 137.093Z" fill="#231F20"/>
<path opacity="0.1" d="M39.9293 162.285L51.5829 171.605L70.5625 176.265C69.6233 176.742 60.4478 181.178 50.9182 176.265C42.4869 171.916 40.2472 163.571 39.9293 162.285Z" fill="#231F20"/>
<path opacity="0.1" d="M98.8838 176.265L84.8966 187.478L66.2566 185.253C68.7787 187.664 71.8932 189.365 75.2846 190.185C78.676 191.004 82.2237 190.913 85.5685 189.92C95.7193 186.893 98.6815 176.916 98.8838 176.265Z" fill="#231F20"/>
<path opacity="0.5" d="M105.697 135.741L118.513 150.191L121.635 169.438C122.184 168.181 126.36 158.174 120.912 147.908C116.071 138.783 107.243 136.168 105.697 135.741Z" fill="#F0CDB1"/>
<path opacity="0.5" d="M122.783 140.654L133.722 152.937C135.595 158.514 137.464 164.087 139.328 169.655C140.177 166.664 140.421 163.534 140.046 160.448C139.67 157.362 138.684 154.382 137.143 151.682C135.603 148.981 133.539 146.615 131.074 144.722C128.608 142.829 125.79 141.446 122.783 140.654Z" fill="#F0CDB1"/>
<path d="M25.5808 98.028C24.1359 108.186 22.7078 118.342 21.2965 128.495L45.8609 154.967L64.2047 156.621L90.214 144.83L107.814 94.0182C104.712 89.4232 101.615 84.8234 98.5225 80.2188L34.7563 73.2469L25.5808 98.028Z" fill="url(#paint1_linear_206_433)"/>
<path d="M29.5255 93.0934L26.8162 109.906C28.6297 110.151 37.2561 111.098 44.6326 105.217C47.6378 102.797 49.9774 99.6514 51.4312 96.0773C48.8085 92.9394 45.1085 90.894 41.0563 90.3421C37.0042 89.7901 32.8919 90.7713 29.5255 93.0934Z" fill="#615C55"/>
<path opacity="0.2" d="M32.7116 78.7811L25.5808 98.028C25.2701 100.195 24.9667 102.406 24.656 104.595C27.8311 102.438 30.5349 99.6579 32.6033 96.4241C36.3227 90.4544 37.7691 83.3454 36.6781 76.3969L32.7116 78.7811Z" fill="#231F20"/>
<path d="M75.2731 97.7173C74.7645 102.457 75.9971 107.221 78.741 111.119C80.3206 113.247 82.3086 115.038 84.5888 116.387C86.8689 117.737 89.3953 118.618 92.0202 118.98C93.7686 114.106 95.5146 109.226 97.2582 104.342C95.1446 101.132 92.0618 98.6795 88.4584 97.3416C84.1684 95.8297 79.47 95.9636 75.2731 97.7173Z" fill="#615C55"/>
<path opacity="0.2" d="M96.1889 83.1882C95.3509 84.8138 90.7992 93.9676 94.6211 104.22C95.98 107.833 98.1646 111.079 101.001 113.699L107.373 95.2898L96.1889 83.1882Z" fill="#231F20"/>
<path d="M13.2192 74.7352L9.01434 102.544C16.905 101.382 24.1988 97.6695 29.7822 91.974C35.3655 86.2784 38.9318 78.9123 39.9365 71L13.2192 74.7352Z" fill="#615C55"/>
<path opacity="0.2" d="M30.2047 91.5256C29.752 92.0073 29.2703 92.4889 28.7598 92.9706C23.295 98.0909 16.4045 101.432 8.9999 102.551L10.6833 91.5256C11.7548 92.4269 12.9585 93.1579 14.2523 93.6931C21.4482 96.6552 28.8031 92.3565 30.2047 91.5256Z" fill="#231F20"/>
<path d="M97.5977 76.6209C95.5631 83.3306 95.5756 90.4946 97.6338 97.1972C101.802 110.491 112.669 116.574 115.024 117.824L123.52 93.8737L97.5977 76.6209Z" fill="#615C55"/>
<path opacity="0.2" d="M119.922 104.017L115.024 117.824C109.061 114.617 104.088 109.843 100.639 104.017C101.073 104.53 104.859 108.829 110.935 108.511C112.657 108.398 114.338 107.942 115.882 107.171C117.425 106.399 118.799 105.327 119.922 104.017Z" fill="#231F20"/>
<path d="M64.667 151.073L87.2517 135.084C85.985 129.675 84.7158 124.261 83.4442 118.843L60.3249 107.565L36.418 112.138L25.9131 130.027L45.6224 149.165L64.667 151.073Z" fill="#615C55"/>
<path opacity="0.2" d="M56.3802 118.33L55.3832 126.32L58.7066 126.826L60.874 117.167L56.3802 118.33Z" fill="#231F20"/>
<path opacity="0.2" d="M57.2616 142.901C35.8112 141.883 23.594 126.169 21.9395 123.958C21.7276 125.403 21.5229 126.86 21.3254 128.329V128.531L45.8898 154.959L64.2046 156.621L90.2139 144.83L97.7783 122.997C96.7163 124.442 82.1222 144.086 57.2616 142.901Z" fill="#231F20"/>
<path d="M50.7305 108.786C52.3248 112.759 53.919 116.735 55.5133 120.714C58.3902 120.462 61.1529 119.47 63.5329 117.834C65.913 116.198 67.8294 113.975 69.0959 111.379L60.5345 106.777L50.7305 108.786Z" fill="#231F20"/>
<path d="M39.2141 95.615C36.8588 95.5499 34.5685 97.5295 34.6914 99.9498C34.6833 100.811 34.9296 101.656 35.3993 102.378C35.8691 103.1 36.5415 103.668 37.3323 104.01C38.1231 104.351 38.9972 104.452 39.8451 104.3C40.693 104.147 41.477 103.748 42.0989 103.152C42.7209 102.555 43.1532 101.789 43.3416 100.948C43.5301 100.108 43.4663 99.2302 43.1583 98.4257C42.8503 97.6211 42.3118 96.9252 41.6102 96.4253C40.9086 95.9253 40.0751 95.6434 39.2141 95.615Z" fill="#231F20"/>
<path d="M85.1567 101.388C82.8086 101.315 80.5111 103.302 80.6412 105.722C80.6331 106.584 80.8795 107.429 81.3496 108.152C81.8196 108.874 82.4924 109.441 83.2836 109.783C84.0749 110.125 84.9493 110.225 85.7974 110.072C86.6455 109.919 87.4296 109.519 88.0513 108.922C88.673 108.325 89.1047 107.558 89.2924 106.717C89.4801 105.876 89.4153 104.998 89.1062 104.193C88.7972 103.389 88.2575 102.694 87.5549 102.194C86.8524 101.695 86.0181 101.415 85.1567 101.388Z" fill="#231F20"/>
<path opacity="0.4" d="M75.4609 151.492L57.5145 132.288L37.6029 146.015L34.2073 142.352L54.5234 128.444L61.3797 129.326L79.1311 149.852L75.4609 151.492Z" fill="#231F20"/>
<path opacity="0.2" d="M62.7596 76.3102L61.1774 86.8223L54.0899 79.8937C54.6525 84.1181 56.7294 87.9947 59.9347 90.8032L57.4855 107.644L60.9968 107.731L63.8867 90.3914C66.9026 90.0385 69.7071 88.6644 71.834 86.4972C73.0284 85.2424 73.9551 83.7577 74.5577 82.1334L63.4821 87.6387C64.219 83.9685 64.9415 80.2983 65.6496 76.6281L62.7596 76.3102Z" fill="#231F20"/>
<path opacity="0.2" d="M80.287 83.4411C79.8111 84.9998 79.8337 86.6682 80.3518 88.2134C80.8699 89.7587 81.8576 91.1035 83.1769 92.0603C84.818 93.1011 86.7835 93.5045 88.7019 93.1943C90.6202 92.8841 92.3584 91.8818 93.5879 90.3769L87.5769 91.3523L82.7362 87.8555L80.287 83.4411Z" fill="#231F20"/>
<path opacity="0.2" d="M78.9866 92.4143C77.4641 91.8353 75.7989 91.7455 74.223 92.1573C72.647 92.5691 71.2386 93.462 70.194 94.7118C69.0351 96.2835 68.4955 98.2269 68.678 100.171C68.8606 102.115 69.7526 103.924 71.1838 105.253L70.613 99.1839L74.4205 94.589L78.9866 92.4143Z" fill="#231F20"/>
<path opacity="0.2" d="M50.2463 88.6935C51.8466 88.9843 53.3163 89.7669 54.4508 90.9324C55.5852 92.098 56.3278 93.5883 56.5752 95.1959C56.7459 97.1318 56.2014 99.0632 55.0445 100.625C53.8876 102.186 52.1986 103.27 50.2969 103.671L53.9093 98.7721C53.6203 96.807 53.3241 94.8346 53.0351 92.8695L50.2463 88.6935Z" fill="#231F20"/>
<path opacity="0.2" d="M50.2897 78.1309C50.4856 79.724 50.215 81.3398 49.5107 82.7822C48.8064 84.2246 47.6987 85.4316 46.322 86.2569C44.9452 87.0822 43.3586 87.4902 41.7545 87.4316C40.1504 87.3729 38.5978 86.8501 37.285 85.9264L45.3262 84.1564L50.2897 78.1309Z" fill="#231F20"/>
<defs>
<linearGradient id="paint0_linear_206_433" x1="114.482" y1="203.004" x2="114.482" y2="135.951" gradientUnits="userSpaceOnUse">
<stop stop-color="#F0DCCC"/>
<stop offset="1" stop-color="#C2A68F"/>
</linearGradient>
<linearGradient id="paint1_linear_206_433" x1="66.279" y1="146.682" x2="63.4828" y2="89.1453" gradientUnits="userSpaceOnUse">
<stop stop-color="#F0CDB1"/>
<stop offset="1" stop-color="#C2A68F"/>
</linearGradient>
</defs>
</svg>
