<svg width="300" height="300" viewBox="0 0 300 300" fill="none" xmlns="http://www.w3.org/2000/svg">
<path opacity="0.1" d="M158.053 262.866H11C22.7474 267.649 48.6757 276.661 83.7838 276.786C119.739 276.912 146.263 267.649 158.053 262.866Z" fill="#1A1A1A"/>
<path d="M93.5593 235.998L93.081 270.317L89.7246 269.73V238.364L93.5593 235.998Z" fill="#F190AC"/>
<path d="M29.4604 163.91C26.9431 169.784 19.7688 188.882 27.4466 208.962C37.0962 234.202 66.3306 250.808 99.45 247.896C76.1229 219.898 52.793 191.903 29.4604 163.91Z" fill="#76A365"/>
<path d="M91.5624 268.84C94.4799 269.193 97.333 269.956 100.037 271.106L76.9536 270.51C81.6284 268.83 86.6292 268.259 91.5624 268.84Z" fill="#F190AC"/>
<path d="M91.1594 269.646L85.2857 275.268C85.1366 274.329 85.2379 273.368 85.5794 272.482C85.8823 271.764 86.3267 271.115 86.8861 270.573C87.4455 270.031 88.1083 269.607 88.8351 269.327L91.1594 269.646Z" fill="#F190AC"/>
<path d="M81.1406 266.272C85.3361 265.056 89.389 269.159 89.7917 269.57L88.038 270.409L79.3953 267.103C79.9272 266.732 80.5169 266.451 81.1406 266.272Z" fill="#F190AC"/>
<path d="M68.0842 236.191C67.8828 247.625 67.6843 259.065 67.4885 270.51L63.3433 269.923V238.557L68.0842 236.191Z" fill="#F190AC"/>
<path d="M72.8167 271.106L49.7329 270.51C54.6212 268.247 60.0838 267.53 65.3906 268.454C67.991 268.938 70.4978 269.833 72.8167 271.106Z" fill="#F190AC"/>
<path d="M63.939 269.646L58.0652 275.268C58.1278 274.054 58.4911 272.874 59.1225 271.836C59.7446 270.805 60.6086 269.941 61.6398 269.318L63.939 269.646Z" fill="#F190AC"/>
<path d="M56.3536 267.347C58.3957 267.714 60.3597 268.43 62.1602 269.461L60.977 270.51L51.6546 267.154C53.2226 267.012 54.8024 267.077 56.3536 267.347Z" fill="#F190AC"/>
<path d="M136.471 238.75C157.217 226.553 173.261 207.737 182.026 185.324L141.246 224.502C161.404 200.84 178.935 175.06 193.53 147.615C182.297 156.759 172.06 167.061 162.987 178.351C145.156 200.529 136.79 221.741 136.303 221.506C135.968 221.347 140.213 211.32 161.199 166.285C153.337 170.893 146.523 177.092 141.195 184.485C126.301 205.303 128.81 228.463 129.691 234.722L136.471 238.75Z" fill="#0083CA"/>
<path d="M145.945 238.188C127.977 213.356 110.009 188.524 92.0406 163.692C95.397 149.304 98.7535 134.914 102.11 120.52C97.9144 116.275 89.8002 109.385 79.0849 109.016C58.6443 108.295 44.6817 131.781 40.3855 139.946C40.1086 140.449 39.7226 141.196 39.2779 142.102C28.6548 163.919 34.5369 186.927 37.6668 199.161C42.0573 216.048 49.9634 231.817 60.868 245.438C74.7824 250.16 89.5232 251.954 104.164 250.706C118.805 249.458 133.03 245.196 145.945 238.188Z" fill="url(#paint0_linear_206_383)"/>
<path d="M73.0935 118.507C71.2822 117.924 69.6287 116.934 68.2603 115.612C67.2223 114.583 66.3705 113.382 65.743 112.062C67.1672 111.348 68.6459 110.747 70.165 110.267L73.0935 118.507Z" fill="#B5D332"/>
<path d="M59.7517 126.436C58.4396 123.911 57.3177 121.291 56.3953 118.599C57.6098 117.493 58.8814 116.451 60.2049 115.477C63.1585 123.449 66.1093 131.42 69.0574 139.392C65.3732 135.523 62.2416 131.163 59.7517 126.436Z" fill="#B5D332"/>
<path d="M79.2863 114.84C77.883 113.078 76.6917 111.157 75.7369 109.117C76.8664 109.011 78.0015 108.978 79.1352 109.016C79.7478 109.016 80.3603 109.083 80.9561 109.142C82.9755 113.299 84.995 117.452 87.0144 121.603C84.0595 119.822 81.4431 117.532 79.2863 114.84Z" fill="#B5D332"/>
<path d="M101.01 125.429L100.809 126.319C97.0917 122.56 93.8251 118.381 91.0755 113.866C90.6056 113.094 90.1609 112.331 89.7413 111.576C92.1539 112.675 94.4411 114.031 96.5632 115.62C98.0512 118.893 99.5337 122.162 101.01 125.429Z" fill="#B5D332"/>
<path d="M48.6674 127.049C49.6827 125.731 50.7735 124.405 51.9315 123.096L57.8052 140.357C53.7494 136.702 50.6129 132.143 48.6506 127.049H48.6674Z" fill="#B5D332"/>
<path d="M38.7574 143.31C40.4692 147.092 42.1838 150.874 43.9011 154.655C42.5403 153.876 41.3019 152.901 40.2258 151.76C38.9475 150.398 37.9142 148.826 37.1715 147.112C37.647 145.853 38.1756 144.586 38.7574 143.31Z" fill="#B5D332"/>
<path d="M42.5671 136.128C43.3139 134.869 44.1614 133.485 45.1263 132.024L51.2434 146.348C49.139 145.381 47.2717 143.965 45.7728 142.199C44.2739 140.434 43.1797 138.361 42.5671 136.128Z" fill="#B5D332"/>
<path opacity="0.3" d="M88.4995 226.852C79.2022 205.824 85.9151 186.331 87.5597 181.909L138.602 240.487C138.56 240.948 138.527 241.418 138.485 241.88C133.376 243.993 128.161 245.839 122.861 247.41C117.759 248.92 112.943 250.07 108.479 250.951C99.7563 244.878 92.8501 236.548 88.4995 226.852Z" fill="#1A1A1A"/>
<path opacity="0.1" d="M130.32 216.539L145.945 238.188C136.018 243.482 116.19 252.201 90.5219 251.085C80.4183 250.633 70.4332 248.722 60.8764 245.412C53.7474 236.485 47.8699 226.627 43.4062 216.111C45.3529 218.435 62.1854 237.827 89.4898 236.644C113.622 235.612 127.963 219.308 130.32 216.539Z" fill="#1A1A1A"/>
<path d="M74.9397 120.487C76.1836 120.807 77.2731 121.559 78.0133 122.609C78.7536 123.659 79.0963 124.938 78.9803 126.217C78.8643 127.496 78.2971 128.693 77.38 129.592C76.463 130.491 75.256 131.035 73.9747 131.127C70.5092 131.353 67.3626 127.695 68.1765 124.355C68.584 122.96 69.5164 121.778 70.7777 121.057C72.039 120.335 73.5309 120.131 74.9397 120.487Z" fill="#B0C422"/>
<path d="M98.7701 119.086C102.177 120.017 105.743 123.449 105.483 127.208C105.198 131.84 99.2736 135.129 94.4571 134.349C90.6644 133.728 86.6031 130.43 86.5947 126.755C86.6283 122.031 93.3327 117.6 98.7701 119.086Z" fill="#9C8198"/>
<path opacity="0.1" d="M105.517 126.629C105.517 126.825 105.517 127.018 105.517 127.208C105.231 131.84 99.3072 135.129 94.4908 134.349C90.698 133.728 86.6368 130.43 86.6284 126.755C86.6284 126.755 86.6284 126.671 86.6284 126.629C89.2507 128.897 92.6016 130.144 96.0683 130.144C99.535 130.144 102.886 128.897 105.508 126.629H105.517Z" fill="#1A1A1A"/>
<path d="M103.452 129.272C103.662 129.818 106.02 136.17 102.043 142.06C98.0653 147.951 91.0336 148.135 90.4882 148.135V130.078C92.0192 131.5 93.992 132.353 96.0766 132.494C97.4674 132.534 98.8497 132.265 100.125 131.708C101.4 131.151 102.536 130.319 103.452 129.272Z" fill="#EF8031"/>
<path opacity="0.1" d="M103.15 139.954C102.829 140.683 102.444 141.382 102.001 142.043C97.9396 148.043 90.9918 148.118 90.4464 148.118C90.4464 145.4 90.4464 142.673 90.4464 139.954C91.2962 141.478 92.6664 142.646 94.3062 143.243C97.3354 144.25 100.91 142.958 103.15 139.954Z" fill="#1A1A1A"/>
<path d="M92.0824 163.692C89.0281 168.937 80.293 185.559 84.8913 204.934C90.6979 229.436 115.46 248.383 146.247 250.053C146.163 247.384 146.07 244.724 145.986 242.056C147.659 244.266 149.767 246.111 152.179 247.477C155.791 249.473 159.915 250.35 164.027 249.994L92.0824 163.692Z" fill="#B2D235"/>
<path d="M139.022 220.021C147.363 230.018 155.698 240.017 164.027 250.019C159.915 250.375 155.791 249.499 152.179 247.502C149.767 246.136 147.659 244.292 145.986 242.081L146.247 250.078C122.156 248.769 101.774 236.887 91.2433 220.046C102.519 228.331 115.493 234.008 129.23 236.669C136.025 237.957 142.943 238.475 149.855 238.213C147.627 235.839 145.64 233.251 143.922 230.485C141.892 227.197 140.247 223.686 139.022 220.021Z" fill="#99B52E"/>
<path d="M84.7824 133.921L72.1959 139.425C73.7734 142.488 77.0291 144.099 79.8737 143.487C83.4902 142.698 86.1501 138.343 84.7824 133.921Z" fill="#00A9A3"/>
<path d="M73.8404 122.333C74.3206 122.335 74.7946 122.441 75.2306 122.642C75.6665 122.843 76.0542 123.136 76.3674 123.5C76.6806 123.864 76.9121 124.29 77.0463 124.751C77.1804 125.213 77.2141 125.697 77.145 126.172C77.0759 126.647 76.9057 127.102 76.6458 127.506C76.3859 127.91 76.0424 128.253 75.6385 128.513C75.2346 128.772 74.7797 128.942 74.3045 129.011C73.8292 129.08 73.3448 129.046 72.8839 128.911C72.1068 128.685 71.4378 128.185 71.0002 127.504C70.5625 126.823 70.3856 126.007 70.502 125.206C70.6185 124.405 71.0205 123.673 71.634 123.145C72.2474 122.617 73.031 122.329 73.8404 122.333Z" fill="#231F20"/>
<path d="M100.935 124.313C101.407 124.298 101.868 124.451 102.238 124.744C102.608 125.037 102.862 125.451 102.956 125.913C103.049 126.376 102.976 126.857 102.749 127.27C102.522 127.684 102.156 128.004 101.715 128.173L100.935 124.313Z" fill="#231F20"/>
<path d="M91.6545 124.565C92.078 124.565 92.4912 124.696 92.8379 124.939C93.1847 125.182 93.4482 125.526 93.5928 125.924C93.7407 126.413 93.7045 126.939 93.4912 127.402C93.2778 127.866 92.9021 128.236 92.4349 128.442L91.6545 124.565Z" fill="#231F20"/>
<path d="M104.829 181.909C103.671 183.464 102.51 185.011 101.346 186.549L95.1621 187.9C96.3554 188.776 97.8132 189.216 99.2917 189.145C100.77 189.075 102.18 188.499 103.285 187.514C105.441 185.383 104.829 182.186 104.829 181.909Z" fill="#99B52E"/>
<path d="M99.7939 193.296C98.1773 194.353 96.5634 195.416 94.9523 196.484L88.6674 195.645C89.4957 196.872 90.7203 197.778 92.1362 198.21C93.5521 198.642 95.0736 198.575 96.4459 198.02C99.2485 196.753 99.7939 193.556 99.7939 193.296Z" fill="#99B52E"/>
<path d="M111.122 190.434L107.64 195.075L101.472 196.426C102.665 197.301 104.123 197.741 105.602 197.671C107.08 197.6 108.49 197.025 109.595 196.04C111.751 193.892 111.172 190.695 111.122 190.434Z" fill="#99B52E"/>
<path d="M102.11 205.144L96.7648 207.384L90.74 205.421C91.3262 206.779 92.361 207.896 93.6715 208.583C94.9819 209.27 96.4885 209.487 97.9395 209.197C100.91 208.45 102.026 205.404 102.11 205.144Z" fill="#99B52E"/>
<path d="M115.737 198.364C114.579 199.908 113.413 201.452 112.255 203.004L106.07 204.355C107.264 205.231 108.722 205.67 110.2 205.6C111.679 205.53 113.088 204.954 114.193 203.969C116.391 201.813 115.812 198.624 115.737 198.364Z" fill="#99B52E"/>
<path d="M113.639 209.767L108.739 212.872L102.479 211.941C103.282 213.184 104.489 214.113 105.896 214.571C107.304 215.03 108.826 214.99 110.207 214.458C113.01 213.224 113.597 210.036 113.639 209.767Z" fill="#99B52E"/>
<path d="M122.097 220.441L117.289 223.671L110.996 222.916C111.835 224.135 113.066 225.03 114.485 225.45C115.904 225.87 117.424 225.79 118.791 225.224C121.56 223.906 122.064 220.709 122.097 220.441Z" fill="#99B52E"/>
<path d="M137.956 222.371L133.14 225.61L126.855 224.846C127.693 226.065 128.925 226.96 130.343 227.382C131.762 227.803 133.282 227.726 134.65 227.162C137.411 225.845 137.914 222.639 137.956 222.371Z" fill="#99B52E"/>
<path d="M124.463 208.416L120.981 213.057L114.797 214.408C115.99 215.283 117.448 215.723 118.927 215.653C120.405 215.582 121.815 215.007 122.919 214.022C125.093 211.873 124.514 208.677 124.463 208.416Z" fill="#99B52E"/>
<path d="M87.9877 161.108C86.0361 158.13 85.1272 154.588 85.4033 151.039L92.4098 162.283L92.0826 163.675L94.1216 166.486C91.6451 165.256 89.5313 163.402 87.9877 161.108Z" fill="#B5D332"/>
<path d="M86.1753 169.818L75.3425 152.431C75.1767 156.443 76.329 160.398 78.6234 163.692C80.5364 166.383 83.1475 168.501 86.1753 169.818Z" fill="#B5D332"/>
<path d="M75.9131 170.388L63.0916 149.578C63.0319 153.907 64.206 158.162 66.4766 161.848C68.7472 165.533 72.0203 168.495 75.9131 170.388Z" fill="#B5D332"/>
<path d="M62.521 168.676C58.2416 161.745 53.965 154.809 49.6911 147.867C49.6503 152.66 51.0922 157.35 53.8195 161.292C56.0495 164.449 59.0432 166.99 62.521 168.676Z" fill="#B5D332"/>
<path d="M73.5719 141.372C74.4596 140.705 75.4909 140.255 76.5834 140.057C77.676 139.858 78.7997 139.918 79.8652 140.231C80.9292 140.587 81.885 141.207 82.6426 142.035C81.8522 142.752 80.8896 143.252 79.8484 143.487C78.7088 143.687 77.5373 143.598 76.4408 143.229C75.3444 142.859 74.358 142.221 73.5719 141.372Z" fill="#008F8A"/>
<defs>
<linearGradient id="paint0_linear_206_383" x1="89.6156" y1="246.193" x2="89.6156" y2="150.292" gradientUnits="userSpaceOnUse">
<stop stop-color="#3E699E"/>
<stop offset="0.68" stop-color="#91BE4A"/>
<stop offset="1" stop-color="#FFFF00"/>
</linearGradient>
</defs>
</svg>
