<svg width="300" height="300" viewBox="0 0 300 300" fill="none" xmlns="http://www.w3.org/2000/svg">
<path opacity="0.1" d="M10 262.2H257C175.894 282.308 91.1056 282.308 10 262.2Z" fill="#1A1A1A"/>
<path d="M133.003 249.994C129.507 243.267 127.318 235.937 126.554 228.394C126.666 240.747 126.773 253.104 126.876 265.466L99.7083 264.767C102.085 262.625 104.951 261.099 108.054 260.321C111.157 259.543 114.404 259.537 117.51 260.304C112.816 196.742 119.538 177.269 128.611 174.478C137.683 171.687 149.847 185.509 158.269 195.106C180.918 220.916 187.605 249.833 189.934 265.942L144.468 265.361C139.843 260.89 135.972 255.701 133.003 249.994Z" fill="#C7BF99"/>
<path d="M74.7577 163.657C73.6758 197.078 72.587 230.502 71.4911 263.927C67.5936 263.375 63.6216 264.081 60.1526 265.942L80.9621 266.522C85.79 250.957 88.9209 234.916 90.3001 218.678C91.6381 202.894 91.3145 187.012 89.3348 171.295L74.7577 163.657Z" fill="#C7BF99"/>
<path d="M45.5825 48.5858C44.5706 84.9587 43.5587 121.35 42.5468 157.76L66.8397 190.16L100.415 198.26L135.822 215.097C149.728 232.206 163.638 249.313 177.553 266.417L237.086 266.725C235.62 246.85 232.14 227.176 226.699 208.004C223.419 196.392 219.424 184.995 214.737 173.876C204.676 162.98 194.02 152.647 182.82 142.924C159.984 123.119 135.007 105.926 108.354 91.6667L99.7711 50.5163L45.5825 48.5858Z" fill="url(#paint0_linear_206_260)"/>
<path d="M88.0339 120.646L102.723 114.197L113.425 103.005C113.271 104.236 112.026 112.693 104.192 117.827C101.817 119.339 99.1675 120.367 96.3944 120.85C93.6214 121.334 90.78 121.265 88.0339 120.646Z" fill="#EBE1B5"/>
<path d="M111.431 129.648C114.654 126.263 117.876 122.88 121.098 119.499C122.073 114.985 123.04 110.471 124.001 105.957C124.267 106.447 128.163 113.882 124.001 121.43C119.993 128.697 112.096 129.585 111.431 129.648Z" fill="#EBE1B5"/>
<path opacity="0.2" d="M76.8073 103.88L44.1346 100.564C44.0856 102.425 44.0297 104.292 43.9807 106.16C55.4147 111.388 68.0711 113.356 80.5527 111.845C93.0343 110.334 104.856 105.404 114.712 97.5983L108.724 91.9255L76.8073 103.88Z" fill="#1A1A1A"/>
<path d="M41.4417 92.597C41.2598 95.4229 41.0733 98.2441 40.8821 101.061C52.7167 105.088 65.256 106.626 77.7132 105.578C90.1703 104.529 102.276 100.917 113.271 94.9682C112.576 92.4734 111.877 89.9716 111.173 87.4628L78.4301 99.354L41.4417 92.597Z" fill="#C1272D"/>
<path opacity="0.1" d="M105.927 82.7133L99.7362 50.5373L45.5825 48.6068C45.2328 61.1274 44.8854 73.6504 44.5403 86.1758C53.8548 92.0711 64.7787 94.9086 75.7849 94.2916C86.791 93.6745 97.3293 89.6338 105.927 82.7344V82.7133Z" fill="#1A1A1A"/>
<path opacity="0.1" d="M216.458 257.429L179.638 239.592L118.608 185.649L72.1768 184.949L52.4445 170.96L58.0403 178.381L66.8747 190.16L100.45 198.26L135.857 215.097L168.733 254.967L216.458 257.429Z" fill="#1A1A1A"/>
<path d="M111.788 168.672C111.033 200.676 110.28 232.698 109.529 264.739C107.597 264.202 105.567 264.118 103.598 264.496C101.628 264.873 99.7728 265.701 98.1764 266.914L119.161 267.047C124.289 247.576 127.771 227.709 129.569 207.654C130.703 195.086 131.17 182.466 130.968 169.847L111.788 168.672Z" fill="#D9D0A7"/>
<path d="M229.294 267.236C229.217 255.729 227.447 223.309 203.413 197.043C199.566 192.846 178.085 169.351 164.445 174.779C143.754 183.012 154.582 252.498 156.401 263.766C153.282 261.877 149.557 261.254 145.993 262.025C143.33 262.663 140.914 264.071 139.047 266.075L229.294 267.236Z" fill="#EBE1B5"/>
<path d="M115.6 73.907L114.202 84.3012C107.563 86.8893 100.45 86.0289 95.8262 81.881C93.5875 79.8176 92.0041 77.1421 91.2726 74.1867L105.262 60.5749L115.6 73.907Z" fill="#C4B77D"/>
<path d="M108.815 23.5164C116.137 30.0775 123.465 36.641 130.8 43.2068C129.53 46.0086 127.764 48.5582 125.589 50.7332C114.628 61.6101 97.2599 58.1686 94.9307 57.672C99.5612 46.2845 104.189 34.8993 108.815 23.5164Z" fill="#E3D4A3"/>
<path d="M125.015 57.651L106.5 44.9275C107.27 37.7835 108.041 30.6465 108.815 23.5164C97.3245 18.114 84.7019 15.5574 72.0144 16.0627C59.327 16.5679 46.9476 20.1202 35.9227 26.4193V70.9621C41.5675 75.9004 52.8291 84.1683 68.7982 86.2527C75.1985 87.0921 93.8955 89.3304 104.339 77.6421C106.371 75.3442 107.971 72.6971 109.06 69.8289C109.578 72.987 111.041 75.9138 113.257 78.2227C115.891 80.8917 119.375 82.5567 123.106 82.9302C123.745 74.5038 124.381 66.0774 125.015 57.651Z" fill="#EBE1B5"/>
<path opacity="0.3" d="M35.9227 43.1579V70.9552C38.378 73.1069 40.9844 75.0798 43.7219 76.8588C45.5821 72.6507 47.0547 68.2819 48.1216 63.8065C51.0263 51.1926 50.803 38.0598 47.4711 25.552L35.9227 43.1579Z" fill="#1A1A1A"/>
<path opacity="0.1" d="M61.3348 35.2188L105.5 36.8346C104.64 38.2336 98.8689 47.4107 87.7681 49.0825C77.5138 50.6213 66.9097 45.1304 61.3348 35.2188Z" fill="#1A1A1A"/>
<path d="M116.999 57.763C117.214 59.8625 116.651 61.9676 115.419 63.6806C112.858 67.136 108.627 67.0871 108.214 67.0801C106.865 67.178 105.511 66.9844 104.244 66.5125C102.976 66.0405 101.826 65.3013 100.869 64.3451C99.3579 62.7104 98.4905 60.5831 98.4282 58.3575C101.119 56.4351 104.319 55.3527 107.624 55.2469C110.929 55.141 114.191 56.0166 116.999 57.763Z" fill="#D45637"/>
<path opacity="0.1" d="M99.1346 61.652C99.539 62.6505 100.128 63.564 100.869 64.345C101.826 65.3013 102.976 66.0405 104.244 66.5124C105.511 66.9843 106.865 67.1779 108.214 67.08C108.627 67.08 112.858 67.136 115.419 63.6805C115.877 63.0597 116.244 62.3766 116.51 61.652L111.494 64.1282L99.1346 61.652Z" fill="#1A1A1A"/>
<path d="M70.9736 31.6514C73.072 32.0641 74.471 34.7921 74.2331 37.4361C73.9883 39.9262 72.2396 42.2205 70.0363 42.0596C67.8329 41.8988 66.301 39.3177 66.315 36.8555C66.336 33.8687 68.6093 31.1757 70.9736 31.6514Z" fill="#231F20"/>
<path d="M99.7992 31.9382C101.856 32.4279 103.206 35.1978 102.863 37.8348C102.534 40.311 100.709 42.5493 98.5192 42.3185C96.3298 42.0876 94.8749 39.4506 94.9728 36.9884C95.0847 34.0087 97.4489 31.3856 99.7992 31.9382Z" fill="#231F20"/>
<path d="M47.2823 21.0963C50.0998 30.2062 50.4244 39.9047 48.2224 49.1826C46.0205 58.4605 41.3723 66.9788 34.7617 73.851L11.0493 44.347C21.0663 33.7774 33.5002 25.7985 47.2823 21.0963Z" fill="#E3D4A3"/>
<path opacity="0.05" d="M13.5464 47.4526L34.7616 73.851C41.7649 66.5272 46.5625 57.3781 48.6043 47.4526C44.1984 51.798 38.3531 54.3786 32.1735 54.7062C21.5554 55.1609 14.6865 48.5788 13.5464 47.4526Z" fill="#1A1A1A"/>
<path opacity="0.1" d="M47.3383 115.722L58.8167 122.549L72.3796 122.815C70.2817 124.701 67.7112 125.983 64.942 126.524C62.1729 127.065 59.3089 126.844 56.6553 125.885C49.7025 123.283 47.5621 116.505 47.3383 115.722Z" fill="#1A1A1A"/>
<path opacity="0.1" d="M65.8044 129.313L78.7938 130.012L92.8603 125.927C91.415 127.971 89.5748 129.706 87.4484 131.027C85.322 132.349 82.9524 133.231 80.4795 133.621C72.3376 134.839 66.6228 130.026 65.8044 129.313Z" fill="#1A1A1A"/>
<path opacity="0.1" d="M184.149 250.553C177.35 238.599 176.392 225.827 176.413 226.701C176.791 239.94 177.164 253.179 177.532 266.417L198.705 266.69C192.782 262.385 187.823 256.888 184.149 250.553Z" fill="#1A1A1A"/>
<path d="M235.295 249.553C236.065 256.301 236.836 263.051 237.61 269.803L203.595 275.574L180.89 267.593L177.987 272.433C186.456 278.34 196.246 282.075 206.498 283.31C228.328 285.856 244.626 275.84 249.369 272.671C250.666 269.62 251.005 266.246 250.341 262.997C248.879 256.429 242.975 251.211 235.295 249.553Z" fill="#EBE1B5"/>
<path opacity="0.1" d="M104.919 133.216L88.3906 142.239L67.4412 144.498L47.3522 133.838C48.6532 135.804 56.2845 146.925 70.358 149.01C72.3744 149.306 74.415 149.405 76.4505 149.304L88.5025 154.494L96.5605 166.098C96.7302 161.316 95.0861 156.646 91.9579 153.025C89.8686 150.71 87.219 148.971 84.2637 147.975C88.5178 147.019 92.5373 145.22 96.0849 142.685C99.6326 140.15 102.636 136.931 104.919 133.216Z" fill="#1A1A1A"/>
<defs>
<linearGradient id="paint0_linear_206_260" x1="144.636" y1="180.85" x2="72.3515" y2="109.552" gradientUnits="userSpaceOnUse">
<stop stop-color="#D4CBA3"/>
<stop offset="1" stop-color="#EBE1B5"/>
</linearGradient>
</defs>
</svg>
