<svg width="300" height="300" viewBox="0 0 300 300" fill="none" xmlns="http://www.w3.org/2000/svg">
<path opacity="0.1" d="M30.5166 262.108H231.3C165.212 277.104 96.6044 277.104 30.5166 262.108Z" fill="#1A1A1A"/>
<path d="M160.789 250.957C158.721 249.979 156.422 249.594 154.148 249.845C152.77 250.011 151.432 250.415 150.194 251.039L153.931 263.395C155.373 263.395 156.814 263.395 158.256 263.313L160.789 250.957Z" fill="#AF6944"/>
<path d="M165.546 266.556C165.081 265.856 164.452 265.279 163.713 264.878C161.067 263.447 158.143 265.032 157.865 265.187C157.999 264.559 158.122 263.92 158.256 263.282C156.814 263.334 155.373 263.354 153.931 263.364C154.271 264.476 154.601 265.589 154.961 266.69L165.546 266.556Z" fill="#FCDED1"/>
<path d="M211.654 210.224C208.76 185.512 192.749 162.654 169.438 155.178C164.998 153.754 160.383 152.947 155.723 152.779C164.523 160.964 171.298 171.085 175.513 182.341C188.795 217.771 172.321 251.606 169.767 256.641L201.028 257.197C204.024 252.275 214.444 234.163 211.654 210.224Z" fill="#BF7249"/>
<path d="M48.144 192.194C48.144 193.224 48.2573 194.254 48.3294 195.469C49.1808 193.601 50.1542 191.792 51.2433 190.053L48.144 192.194Z" fill="#8C5436"/>
<path d="M175.451 182.351C171.237 171.095 164.461 160.975 155.661 152.789C150.059 152.624 144.467 153.351 139.094 154.941C152.984 178.026 158.194 207.67 147.609 233.484C144.324 241.093 140.515 248.507 136.973 256.136L169.706 256.703C172.259 251.616 188.734 217.833 175.451 182.351Z" fill="#8C5436"/>
<path d="M65.2261 196.941C65.0716 203.541 65.2261 210.687 65.6482 218.296C66.3414 229.294 67.7689 240.233 69.9213 251.039C78.7179 253.458 87.7224 255.043 96.816 255.776C104.485 256.396 112.191 256.396 119.86 255.776L136.973 256.085C140.515 248.496 144.324 241.083 147.609 233.432C158.194 207.619 152.984 177.975 139.094 154.89C129.383 157.832 120.47 162.949 113.033 169.851L65.2261 196.941Z" fill="#FCDED1"/>
<path opacity="0.1" d="M66.0398 223.496C66.8119 232.743 68.1079 241.939 69.9216 251.039C78.7182 253.458 87.7227 255.043 96.8162 255.776C104.485 256.396 112.191 256.396 119.86 255.776L200.966 257.207C207.229 246.993 210.983 235.441 211.922 223.496C201.244 231.363 181.681 243.389 155.095 246.983C110.264 253.047 76.4291 230.93 66.0398 223.496Z" fill="#1A1A1A"/>
<path d="M68.7064 151.605C64.423 145.716 57.8332 144.254 54.2912 146.684C53.1932 147.506 52.3386 148.61 51.8182 149.879C51.2979 151.148 51.1312 152.535 51.3361 153.891C51.9642 157.927 56.1858 161.264 61.5091 161.099L68.7064 151.605Z" fill="#AB6641"/>
<path d="M23 187.973L24.4209 215.969C31.3441 223.246 39.7797 228.916 49.1327 232.578C67.543 239.713 99.102 242.287 119.355 220.716C141.833 196.776 132.164 162.509 131.711 160.924C123.502 152.025 112.722 145.906 100.873 143.419C90.9255 141.416 80.6253 142.073 71.0129 145.324L44.8493 172.744L23 187.973Z" fill="#BF7249"/>
<path d="M131.66 160.872C123.45 151.973 112.671 145.855 100.821 143.368C95.0941 142.202 89.2216 141.924 83.4098 142.544C82.4807 151.191 84.4393 159.901 88.9802 167.318C97.8971 181.537 116.112 188.683 133.997 184.822C134.503 176.765 133.714 168.679 131.66 160.872Z" fill="#8C5436"/>
<path d="M69.9214 251.039C71.4933 256.25 73.0756 261.466 74.6682 266.69L85.2633 266.556C84.8048 265.854 84.1784 265.277 83.4408 264.878C80.7946 263.447 77.8704 265.032 77.5924 265.187C78.5602 260.451 79.535 255.707 80.5166 250.957C78.4485 249.979 76.1493 249.594 73.8753 249.845C72.4976 250.009 71.1594 250.413 69.9214 251.039Z" fill="#E5CABF"/>
<path d="M131.433 251.039C129.848 256.25 128.265 261.466 126.687 266.69L116.081 266.556C116.545 265.859 117.17 265.283 117.904 264.878C120.55 263.447 123.484 265.032 123.762 265.187L120.828 250.957C122.899 249.977 125.202 249.592 127.479 249.845C128.856 250.012 130.194 250.416 131.433 251.039Z" fill="#E5CABF"/>
<path d="M194.727 262.911C194.881 263.673 195.046 264.425 195.2 265.187C194.922 265.032 191.998 263.447 189.342 264.878C188.608 265.283 187.983 265.859 187.519 266.556L198.125 266.69C198.485 265.496 198.845 264.301 199.216 263.107C197.713 262.973 196.209 262.922 194.727 262.911Z" fill="#FCDED1"/>
<path d="M202.871 251.039C201.632 250.416 200.294 250.012 198.917 249.845C196.643 249.594 194.344 249.979 192.276 250.957C193.093 254.938 193.91 258.923 194.726 262.911C196.219 262.911 197.712 262.973 199.216 263.107C200.431 259.078 201.649 255.055 202.871 251.039Z" fill="#AF6944"/>
<path d="M23.2266 191.927C23.6316 199.924 24.0366 207.921 24.4416 215.918C31.3648 223.195 39.8004 228.864 49.1534 232.526C53.0532 234.026 57.0729 235.194 61.1695 236.017C59.3516 212.423 63.8847 188.773 74.2976 167.524L69.3965 164.672C55.7464 176.425 40.1124 185.654 23.2266 191.927Z" fill="#FCDED1"/>
<path opacity="0.1" d="M23.4529 196.941C23.7824 203.263 24.105 209.589 24.4208 215.918C31.344 223.195 39.7796 228.864 49.1326 232.526C67.5429 239.662 99.1019 242.236 119.355 220.664C125.581 213.996 129.991 205.842 132.164 196.982C119.074 208.234 102.841 215.189 85.6649 216.906C51.8509 220.026 28.1275 200.874 23.4529 196.941Z" fill="#1A1A1A"/>
<path d="M99.9773 159.009C101.275 154.221 104.796 150.596 109.141 149.742C112.086 149.134 117.162 149.412 119.376 153.129C121.59 156.846 120.035 161.82 116.956 164.219C112.323 167.833 105.867 164.219 104.93 163.724C102.921 162.577 101.221 160.959 99.9773 159.009Z" fill="#AB6641"/>
<path d="M29.8779 198.362C36.2006 198.014 42.5365 198.738 48.6177 200.504L38.6712 214.497C36.1336 212.597 34.0356 210.172 32.5199 207.387C31.0042 204.603 30.1066 201.525 29.8882 198.362H29.8779Z" fill="#F082B8"/>
<path d="M78.2823 180.57C76.0479 180.436 74.1637 183.659 73.7724 186.264C73.3708 189.353 74.9153 193.111 77.0982 193.379C79.2811 193.646 82.0303 190.094 82.0715 186.737C82.1126 184.05 80.4857 180.693 78.2823 180.57Z" fill="#3C475B"/>
<path d="M43.9226 170.005C41.6986 169.882 39.804 173.094 39.4127 175.699C39.0111 178.788 40.566 182.547 42.7386 182.814C44.9111 183.082 47.6706 179.53 47.7221 176.173C47.7633 173.486 46.1261 170.139 43.9226 170.005Z" fill="#3C475B"/>
</svg>
