<svg width="300" height="300" viewBox="0 0 300 300" fill="none" xmlns="http://www.w3.org/2000/svg">
<path opacity="0.1" d="M239.153 261.492H34.4901C34.4901 261.492 128.879 303.435 239.153 261.492Z" fill="#231F20"/>
<path d="M59.7092 253.711C60.0141 253.06 60.4141 252.459 60.8961 251.926C65.9708 252.951 71.1122 253.613 76.2811 253.907C79.1546 254.13 82.0192 254.398 84.8927 254.523C89.4172 254.719 89.0245 254.799 91.2734 251.194C86.8258 248.985 82.9026 245.849 79.7672 241.998C76.6318 238.147 74.3568 233.669 73.0952 228.866C71.5157 222.619 71.7834 215.784 74.88 210.126C76.4577 207.227 78.714 204.754 81.4558 202.917C84.1976 201.081 87.3435 199.935 90.6244 199.579C93.9052 199.223 97.2235 199.667 100.296 200.873C103.368 202.078 106.102 204.01 108.265 206.503C112.727 211.518 113.387 216.837 113.164 223.458C112.691 237.647 107.096 251.185 101.518 264.036L68.3476 264.241C65.7508 264.241 63.1539 264.241 60.557 264.286C59.5834 262.336 59.0042 260.213 58.8525 258.039C58.7788 256.548 59.073 255.061 59.7092 253.711Z" fill="#353F4F"/>
<path d="M69.4363 223.842L61.9401 264.268H48.2596L53.0786 259.663C53.0786 259.663 63.484 237.942 53.971 186.781L69.4363 223.842Z" fill="#222933"/>
<path opacity="0.3" d="M54.7207 191.055C54.4887 189.645 54.2388 188.226 53.9711 186.781L55.6399 190.788C55.3276 190.868 55.0241 190.957 54.7207 191.055Z" fill="#231F20"/>
<path d="M141.578 248.883C158.177 252.015 176.042 253.907 192.043 247.223C205.938 241.422 216.584 231.017 220.02 216.078C223.456 201.139 220.02 184.844 211.988 171.717C207.803 164.917 202.511 158.849 194.506 156.725C187.028 154.744 180.326 157.474 176.06 163.784C171.456 170.584 172.107 178.624 176.105 185.549C177.943 188.753 180.853 192.492 184.61 193.5C185.859 193.831 187.09 194.027 188.001 193.027C188.715 192.251 188.447 190.805 188.848 191.091C183.494 187.325 188.358 178.597 194.06 182.167C201.913 187.12 200.235 198.73 192.454 202.924C182.691 208.198 171.929 199.622 167.047 191.617C156.16 173.698 165.967 147.792 188.277 146.471C210.793 145.15 226.044 169.968 230.22 189.208C234.834 210.626 230.559 232.757 213.336 247.428C192.811 264.901 163.71 266.811 138.535 260.029C131.217 258.083 134.341 247.509 141.578 248.883Z" fill="#353F4F"/>
<path d="M16.7848 55L35.8197 73.4459C61.4048 71.0632 79.2528 77.0155 79.2528 77.0155L94.7181 55.5979C96.5029 71.2149 96.5029 106.465 98.02 128.614C115.234 137.699 129.584 149.3 143.131 164.56C154.858 177.774 161.897 194.489 163.158 212.111C164.418 229.734 159.828 247.28 150.1 262.028C147.129 266.543 120.803 260.555 116.983 259.636C92.2372 253.648 69.4364 232.739 57.7995 218.702C56.8357 207.752 56.1753 196.918 52.2844 188.191C46.0377 174.126 32.6517 163.204 24.6201 149.764C17.9628 138.591 15.0892 124.081 15 110.927L16.7848 55Z" fill="url(#paint0_linear_206_558)"/>
<g style="mix-blend-mode:overlay" opacity="0.1">
<path d="M79.2081 90.3301C79.7793 93.5785 78.8601 97.032 75.7099 100.147C69.7933 105.974 59.6914 106.661 51.9007 105.929C45.2612 105.305 36.4265 103.404 32.3393 97.5318C31.3021 96.0887 30.6592 94.4 30.4742 92.6325C30.1886 89.1343 32.1876 85.7432 34.9362 83.5746C41.7987 78.2202 50.9369 76.2391 59.5129 77.1583C67.5802 78.0061 77.5572 81.1919 79.2081 90.3301Z" fill="white"/>
</g>
<path d="M51.9276 109.909C51.1521 111.058 50.8338 112.456 51.0352 113.827C51.526 117.057 54.7565 119.387 57.8977 118.155C58.7606 117.827 59.5336 117.299 60.1539 116.615C60.7742 115.931 61.2242 115.11 61.4673 114.22C62.8059 108.687 55.051 105.215 51.9276 109.909Z" fill="#2E3745"/>
<path d="M59.62 114.175C58.3951 113.259 57.4108 112.059 56.7518 110.679C56.0927 109.299 55.7785 107.779 55.8362 106.251C56.1932 100.004 62.6095 96.8803 68.1781 98.8525C78.4496 102.485 74.8889 118.325 63.6001 116.013C62.1497 115.715 60.7877 115.086 59.62 114.175Z" fill="#465369"/>
<path d="M42.3075 114.175C41.0815 113.259 40.096 112.06 39.4354 110.68C38.7748 109.3 38.4589 107.78 38.5148 106.251C38.8718 100.004 45.297 96.8803 50.8567 98.8525C61.1282 102.485 57.5675 118.325 46.2876 116.013C44.8366 115.717 43.4742 115.087 42.3075 114.175Z" fill="#465369"/>
<path opacity="0.1" d="M46.3234 109.704C49.7183 109.702 53.0146 108.562 55.6846 106.465C57.5035 108.141 59.6928 109.365 62.0742 110.034L66.2506 110.597C68.3577 110.688 70.4515 110.22 72.319 109.24C72.9619 109.021 73.5857 108.749 74.1841 108.428C73.6576 113.077 69.8024 117.29 63.6002 116.013C62.1498 115.715 60.7878 115.086 59.6201 114.175C58.2511 113.119 57.1833 111.722 56.5235 110.124C55.3455 114.032 51.7134 117.129 46.2877 116.013C44.269 115.59 42.435 114.541 41.0461 113.016C39.6573 111.491 38.7841 109.567 38.5506 107.518C40.9034 108.919 43.585 109.674 46.3234 109.704Z" fill="#231F20"/>
<path d="M77.6786 99.6475L78.4133 101.274L66.5477 106.634L65.813 105.008L77.6786 99.6475Z" fill="#767F8C"/>
<path d="M80.4338 106.847L80.571 108.626L65.7032 109.773L65.5659 107.993L80.4338 106.847Z" fill="#767F8C"/>
<path d="M66.9861 111.049L79.6846 113.716L79.3178 115.463L66.6193 112.796L66.9861 111.049Z" fill="#767F8C"/>
<path d="M33.9583 97.6004L45.824 102.96L45.0892 104.587L33.2236 99.2269L33.9583 97.6004Z" fill="#767F8C"/>
<path d="M28.3463 104.905L43.2583 106.098L43.1155 107.883L28.2035 106.69L28.3463 104.905Z" fill="#767F8C"/>
<path d="M44.6708 108.909L45.0376 110.656L32.3391 113.323L31.9723 111.576L44.6708 108.909Z" fill="#767F8C"/>
<path d="M62.6006 97.9869L56.3538 104.68L49.6608 97.0945L62.6006 97.9869Z" fill="#222933"/>
<path d="M78.8424 95.0688C78.8163 95.9892 78.4434 96.8658 77.7982 97.5229C75.7993 99.3077 74.5321 97.3265 74.2286 95.4525C73.9431 93.8283 74.5945 86.3411 77.4591 89.5984C78.552 91.2011 79.0421 93.1392 78.8424 95.0688Z" fill="#FFF200"/>
<path d="M38.2915 93.9711C38.257 94.8897 37.8853 95.7633 37.2474 96.4252C35.2484 98.21 33.9812 96.2289 33.6778 94.3548C33.3922 92.7307 34.0437 85.2434 36.8994 88.5007C37.9954 90.1023 38.4886 92.0404 38.2915 93.9711Z" fill="#FFF200"/>
<path d="M108.791 253.711C109.096 253.06 109.496 252.459 109.978 251.926C115.053 252.951 120.194 253.613 125.363 253.907C126.443 253.961 138.678 255.121 138.883 254.335C139.142 253.372 139.391 252.417 139.65 251.462C135.108 250.846 130.967 250.016 126.809 247.946C116.921 243.038 110.745 231.186 108.72 220.683C105.721 204.932 111.165 183.274 130.842 183.39C140.614 183.443 149.663 189.556 155.178 197.668C169.287 218.336 159.506 243.511 150.6 264.027L117.43 264.232C114.833 264.232 112.236 264.232 109.639 264.277C108.665 262.327 108.086 260.204 107.934 258.03C107.862 256.542 108.156 255.059 108.791 253.711Z" fill="url(#paint1_linear_206_558)"/>
<path d="M84.6073 259.957C85.3658 259.324 85.1784 254.469 85.2766 253.532C85.812 248.303 86.3534 243.073 86.9007 237.844C87.5254 231.802 88.4535 225.716 88.7837 219.657C89.1585 212.723 88.7034 205.878 90.1937 198.944C91.4341 193.188 93.7633 187.539 97.8594 183.265C101.054 198.132 99.9298 213.115 98.7518 228.143C97.8594 239.638 97.2436 253.416 91.4163 263.697H80.1453L84.6073 259.957Z" fill="#2E3745"/>
<path d="M96.2173 81.7542L84.6964 76.9263L95.3606 63.0048C95.7175 68.3949 95.9853 74.847 96.2173 81.7542Z" fill="#2E3745"/>
<path d="M16.1156 76.1142L16.6064 60.515L30.4475 73.7404L16.1156 76.1142Z" fill="#2E3745"/>
<path d="M97.6453 125.446L97.8237 125.616C99.2805 126.98 100.805 128.27 102.393 129.48C87.695 150.79 65.0638 166.255 39.6125 171.494C37.6492 169.209 35.7306 166.907 33.8119 164.596C59.3881 160.535 82.6708 146.569 97.6453 125.446Z" fill="#EF4136"/>
<defs>
<linearGradient id="paint0_linear_206_558" x1="89.1763" y1="167.442" x2="89.1763" y2="218.015" gradientUnits="userSpaceOnUse">
<stop stop-color="#353F4F"/>
<stop offset="1" stop-color="#222933"/>
</linearGradient>
<linearGradient id="paint1_linear_206_558" x1="-15557.3" y1="53110.6" x2="-15557.3" y2="62670.7" gradientUnits="userSpaceOnUse">
<stop stop-color="#353F4F"/>
<stop offset="1" stop-color="#222933"/>
</linearGradient>
</defs>
</svg>
