<svg width="49" height="80" viewBox="0 0 49 80" fill="none" xmlns="http://www.w3.org/2000/svg">
<path d="M45.1325 76.5632H3.37623V3.42165H45.1325V76.5632ZM48.1756 0H0.333083C0.151402 0 0 0.151402 0 0.333083V79.6669C0 79.8486 0.151402 80 0.333083 80H48.1756C48.3573 80 48.5087 79.8486 48.5087 79.6669V0.333083C48.5087 0.151402 48.3573 0 48.1756 0Z" fill="black"/>
<path d="M24.2392 3.7396C24.2392 3.72447 24.2543 3.72447 24.2392 3.7396V3.7396Z" fill="black"/>
<path d="M36.2603 11.3853H39.0914C39.1974 11.3853 39.2731 11.4762 39.2731 11.567C39.2731 11.567 39.2731 11.567 39.2731 11.5822C39.2731 13.9591 39.2731 16.3361 39.2731 18.7131C39.2731 19.8638 39.0612 20.969 38.501 21.9834C37.8954 23.0886 37.0021 23.8607 35.8666 24.2998C34.7614 24.7237 33.6107 24.7994 32.445 24.6329C31.2489 24.4663 30.1891 24.0121 29.3261 23.1189C28.5388 22.3013 28.0695 21.3021 27.8727 20.1666C27.7818 19.6669 27.7364 19.1673 27.7364 18.6526C27.7213 16.2907 27.7364 13.9289 27.7364 11.567C27.7364 11.461 27.8121 11.3702 27.9181 11.3702H30.7644C30.8704 11.3702 30.9461 11.461 30.9461 11.567V11.6276C30.9461 13.8834 30.9461 16.1545 30.9461 18.4103C30.9461 18.9554 30.9915 19.5004 31.1883 20.0152C31.5366 20.9236 32.233 21.3626 33.1414 21.4535C33.641 21.4989 34.1558 21.4686 34.6251 21.2718C35.4578 20.9236 35.8666 20.2271 36.0029 19.3339C36.0483 19.0159 36.0634 18.698 36.0634 18.38C36.0634 16.1393 36.0634 13.8986 36.0634 11.6579V11.567C36.0786 11.461 36.1543 11.3853 36.2603 11.3853Z" fill="black"/>
<path d="M35.1855 34.3073V44.2392C35.1855 44.3452 35.0946 44.436 35.0038 44.436H32.0061C31.9001 44.436 31.8244 44.3452 31.8244 44.2392V34.3073C31.8244 34.2013 31.7336 34.1105 31.6427 34.1105H27.9182C27.8123 34.1105 27.7366 34.0197 27.7366 33.9137V30.9917C27.7366 30.8857 27.8274 30.7948 27.9182 30.7948H39.0765C39.1824 30.7948 39.2581 30.8857 39.2581 30.9917V33.9137C39.2581 34.0197 39.1673 34.1105 39.0765 34.1105H35.3672C35.2763 34.1256 35.1855 34.2013 35.1855 34.3073Z" fill="black"/>
<path d="M10.4921 18.486H13.4141C13.5201 18.486 13.611 18.5768 13.5958 18.6828C13.5958 18.9251 13.5807 19.1673 13.5958 19.3944C13.6261 19.7578 13.6412 20.1363 13.7321 20.4996C13.8835 21.1052 14.368 21.4383 14.9887 21.4686C15.231 21.4837 15.4732 21.4837 15.7003 21.4534C16.3664 21.3323 16.7298 20.9084 16.8207 20.1968C16.8509 19.9697 16.8661 19.7275 16.8661 19.5004C16.8661 16.8812 16.8661 14.2619 16.8661 11.6578V11.5973C16.8661 11.4913 16.9569 11.4005 17.0478 11.4005H19.9546C20.0606 11.4005 20.1363 11.4913 20.1363 11.5821C20.1363 11.5973 20.1363 11.5973 20.1363 11.6124C20.1363 14.2468 20.1363 16.8812 20.1363 19.5155C20.1363 20.4391 20.0152 21.3323 19.6216 22.1802C19.0917 23.3005 18.2438 24.0575 17.0932 24.436C15.7306 24.8902 14.3528 24.86 13.0205 24.2846C11.885 23.8001 11.0977 22.9523 10.6586 21.7714C10.4013 21.0749 10.2953 20.3482 10.2953 19.6064C10.2953 19.3036 10.2953 19.0008 10.2953 18.698C10.2953 18.5617 10.3861 18.486 10.4921 18.486Z" fill="black"/>
<path d="M19.3794 37.184C18.577 36.6086 17.5172 36.2756 16.2 35.9576L16.1546 35.9425C14.2923 35.5186 13.3688 35.3066 13.3688 34.4739C13.3688 33.8077 14.0804 33.3535 15.125 33.3535C15.6701 33.3535 16.1243 33.4747 16.4574 33.7169C16.7905 33.9591 17.0024 34.2922 17.0781 34.7313C17.0933 34.8373 17.1841 34.913 17.2901 34.913H20.1515C20.2121 34.913 20.2727 34.8827 20.3029 34.8524C20.3484 34.807 20.3635 34.7464 20.3635 34.6859C20.3181 34.0348 20.1515 33.4444 19.8639 32.9296C19.5914 32.4451 19.228 32.0363 18.7587 31.7033C17.8805 31.0825 16.6542 30.7494 15.2462 30.7494C13.7473 30.7494 12.4755 31.0825 11.5823 31.7184C11.0978 32.0666 10.7344 32.4906 10.4771 32.9902C10.2045 33.5201 10.0834 34.1408 10.0834 34.8221C10.0834 36.0787 10.5679 37.0174 11.5671 37.6836C12.4453 38.2741 13.5959 38.5768 14.7011 38.8342L14.8828 38.8796C16.5179 39.2884 17.4112 39.5004 17.4112 40.4391C17.4112 41.3778 16.3968 41.7108 15.443 41.7108C14.7011 41.7108 14.1561 41.5746 13.7624 41.3172C13.3688 41.0447 13.1266 40.6359 13.0509 40.0454C13.0357 39.9395 12.9449 39.8638 12.8389 39.8638H9.87145C9.81089 39.8638 9.76547 39.894 9.72005 39.9243C9.67463 39.9697 9.65948 40.0303 9.65948 40.0757C9.68976 40.7722 9.85631 41.408 10.144 41.9531C10.4316 42.483 10.8253 42.9523 11.34 43.3157C12.3393 44.0424 13.7625 44.4209 15.443 44.4209C16.1849 44.4209 16.8964 44.3301 17.5323 44.1332C18.1833 43.9516 18.7435 43.6639 19.228 43.3005C20.2424 42.5284 20.7723 41.4232 20.7723 40.0909C20.7723 38.8342 20.3181 37.8653 19.3794 37.184Z" fill="black"/>
</svg>
